<svg version="1.1" id="Layer_1" x="0" y="0" viewBox="0 0 500 500" style="enable-background:new 0 0 500 500" xml:space="preserve" xmlns="http://www.w3.org/2000/svg"><style type="text/css" id="style1">.st1{fill:#1d4050}</style><path id="rect1" style="fill:#edc4dd" d="M0 2.8h500v496.5H0z"/><path class="st1" id="rect2" style="fill:#076059;fill-opacity:1" d="M-34.3-31.3h568.7v564.7H-34.3z"/><path id="rect3" style="fill:#fff" d="M51.6 50.6h396.7v396.7H51.6z"/><path id="rect4" style="fill:none" d="M1.1 83.9h498v303H1.1z"/><g id="g4" style="enable-background:new"><path class="st1" d="M288.6 223.9c10.9 0 17.5 6.7 17.5 17.5v126c0 10.8-6.6 17.5-17.5 17.5s-17.5-6.7-17.5-17.5v-45.5c0-4.2-2.8-7-7-7s-7 2.8-7 7v33.2c0 19.3-12.2 31.5-31.5 31.5-19.2 0-31.5-12.2-31.5-31.5V148.6c0-27.7 17.9-45.5 45.5-45.5s45.5 17.8 45.5 45.5v40.2c0 13-8 21-21 21s-21-8-21-21v-7c0-4.2-2.8-7-7-7s-7 2.8-7 7v105c0 4.2 2.8 7 7 7h28c4.2 0 7-2.8 7-7s-2.8-7-7-7h-3.5c-10.9 0-17.5-6.7-17.5-17.5v-21c0-10.8 6.6-17.5 17.5-17.5h28z" id="path4" style="fill:#076059;fill-opacity:1"/></g></svg>
