<?xml version="1.0" encoding="utf-8"?>
<!-- Generator: Adobe Illustrator 22.0.1, SVG Export Plug-In . SVG Version: 6.00 Build 0)  -->
<svg version="1.1" xmlns="http://www.w3.org/2000/svg" xmlns:xlink="http://www.w3.org/1999/xlink" x="0px" y="0px"
	 viewBox="0 0 500 496.5" style="enable-background:new 0 0 500 496.5;" xml:space="preserve">
<style type="text/css">
	.st0{fill:#231F20;stroke:#FFFFFF;stroke-width:8;stroke-miterlimit:10;}
	.st1{stroke:#FFFFFF;stroke-width:8;stroke-miterlimit:10;}
	.st2{fill:#FFFFFF;}
	.st3{fill:#FFFFFF;stroke:#231F20;stroke-width:8;stroke-miterlimit:10;}
	.st4{stroke:#FFFFFF;stroke-width:8.0055;stroke-miterlimit:10;}
	.st5{fill:#0AFFCD;}
	.st6{fill:#231F20;}
	.st7{fill:#FFFFFF;stroke:#FFFFFF;stroke-width:8;stroke-miterlimit:10;}
	.st8{fill:#BBBDBF;stroke:#FFFFFF;stroke-width:8;stroke-miterlimit:10;}
	.st9{fill:#BBBDBF;}
	.st10{fill:#0AFFCD;stroke:#FFFFFF;stroke-width:8;stroke-miterlimit:10;}
</style>
<g id="Layer_1">
	<rect class="st1" width="500" height="496.5"/>
	<g>
		<path class="st5" d="M177.5,154.2c7.2-21.3,17.6-37.7,31.2-49.2c13.6-11.5,29.6-17.2,48-17.2c11.7,0,25.6,3.2,41.6,9.6
			c2.4,1.1,5.1,1.6,8,1.6c5.3,0,10.4-1.7,15.2-5.2l-7.6,108.8l-2.8-0.4c-8.8-28.3-19.6-52.1-32.4-71.6c-12.8-19.5-28-29.2-45.6-29.2
			c-8.8,0-15.2,4.7-19.2,14c-4,9.3-6,21.7-6,37.2c0,31.7,2.8,61.2,8.4,88.4s13.9,49.1,25,65.8c11.1,16.7,24.3,25,39.8,25
			c8,0,14.9-2.8,20.8-8.4c5.9-5.6,10.1-13.7,12.8-24.4l-82.8-95.6l0.8-3.2l95.6,31.2c-2.1,36-5.9,64.4-11.2,85.2
			c-5.3,20.8-13,35.9-23,45.4c-10,9.5-23.1,14.2-39.4,14.2c-16.5,0-31.5-6.6-45-19.8c-13.5-13.2-24-31-31.6-53.4
			c-7.6-22.4-11.4-47.1-11.4-74C166.7,200.4,170.3,175.5,177.5,154.2z"/>
	</g>
</g>
<g id="Layer_2">
</g>
</svg>
