<svg viewBox="0 0 500 500" style="enable-background:new 0 0 500 500" xml:space="preserve" xmlns="http://www.w3.org/2000/svg"><path style="fill:#edc4dd" d="M0 2.8h500v496.5H0z"/><path style="fill:#076059;fill-opacity:1" d="M-34.3-31.3h568.7v564.7H-34.3z"/><path style="fill:none" d="M1.1 83.9h498v303H1.1z"/><g style="enable-background:new"><path d="M288.6 223.9c10.9 0 17.5 6.7 17.5 17.5v126c0 10.8-6.6 17.5-17.5 17.5s-17.5-6.7-17.5-17.5v-45.5c0-4.2-2.8-7-7-7s-7 2.8-7 7v33.2c0 19.3-12.2 31.5-31.5 31.5-19.2 0-31.5-12.2-31.5-31.5V148.6c0-27.7 17.9-45.5 45.5-45.5s45.5 17.8 45.5 45.5v40.2c0 13-8 21-21 21s-21-8-21-21v-7c0-4.2-2.8-7-7-7s-7 2.8-7 7v105c0 4.2 2.8 7 7 7h28c4.2 0 7-2.8 7-7s-2.8-7-7-7h-3.5c-10.9 0-17.5-6.7-17.5-17.5v-21c0-10.8 6.6-17.5 17.5-17.5h28z" style="fill:#fff"/></g></svg>
