<svg version="1.1" id="Layer_1" xmlns="http://www.w3.org/2000/svg" x="0" y="0" viewBox="0 0 500 500" style="enable-background:new 0 0 500 500" xml:space="preserve"><style>.st0{fill:#ffc2fc}</style><path class="st0" d="M0 2.8h500v496.5H0z"/><path class="st0" d="M-34.3-31.3h568.7v564.7H-34.3z"/><path style="fill:none" d="M1.1 83.9h498v303H1.1z"/><g style="enable-background:new"><path d="M292.1 145.1v99.8c0 21.3-13.6 35-35 35h-7c-4.2 0-7 2.8-7 7v80.5c0 10.8-6.6 17.5-17.5 17.5s-17.5-6.7-17.5-17.5V145.1c0-25.6 16.5-42 42-42s42 16.5 42 42zm-35 71.8c0-4.2-2.8-7-7-7s-7 2.8-7 7v35c0 4.2 2.8 7 7 7s7-2.8 7-7v-35z" style="fill:#fff"/></g></svg>
