<?xml version="1.0" encoding="utf-8"?>
<!-- Generator: Adobe Illustrator 22.0.1, SVG Export Plug-In . SVG Version: 6.00 Build 0)  -->
<svg version="1.1" xmlns="http://www.w3.org/2000/svg" xmlns:xlink="http://www.w3.org/1999/xlink" x="0px" y="0px"
	 viewBox="0 0 500 496.5" style="enable-background:new 0 0 500 496.5;" xml:space="preserve">
<style type="text/css">
	.st0{fill:#231F20;stroke:#FFFFFF;stroke-width:8;stroke-miterlimit:10;}
	.st1{stroke:#FFFFFF;stroke-width:8;stroke-miterlimit:10;}
	.st2{fill:#FFFFFF;}
	.st3{fill:#FFFFFF;stroke:#231F20;stroke-width:8;stroke-miterlimit:10;}
	.st4{stroke:#FFFFFF;stroke-width:8.0055;stroke-miterlimit:10;}
	.st5{fill:#0AFFCD;}
	.st6{fill:#231F20;}
	.st7{fill:#FFFFFF;stroke:#FFFFFF;stroke-width:8;stroke-miterlimit:10;}
	.st8{fill:#BBBDBF;stroke:#FFFFFF;stroke-width:8;stroke-miterlimit:10;}
	.st9{fill:#BBBDBF;}
	.st10{fill:#0AFFCD;stroke:#FFFFFF;stroke-width:8;stroke-miterlimit:10;}
</style>
<g id="Layer_1">
	<rect class="st7" width="500" height="496.5"/>
	<g>
		<path class="st6" d="M306.7,92.2h77.2l-84.4,294h-4l-45.6-156.4l-44.8,156.4h-4l-86-294h56.4l53.6,194l20.4-71.6l-36-122.4h70.4
			c-5.9,6.4-8.5,13.7-8,22l47.6,172l25.6-91.2c1.3-5.3,2-10.9,2-16.8c0-15.2-3.5-30.7-10.6-46.4c-7.1-15.7-17.1-27.9-30.2-36.4
			L306.7,92.2z M186.3,92.2c-5.3,5.9-8,12.3-8,19.2c0,4,0.5,7.7,1.6,11.2l-8.4-30.4H186.3z"/>
	</g>
</g>
<g id="Layer_2">
</g>
</svg>
