<?xml version="1.0" encoding="utf-8"?>
<!-- Generator: Adobe Illustrator 22.0.1, SVG Export Plug-In . SVG Version: 6.00 Build 0)  -->
<svg version="1.1" xmlns="http://www.w3.org/2000/svg" xmlns:xlink="http://www.w3.org/1999/xlink" x="0px" y="0px"
	 viewBox="0 0 500 496.5" style="enable-background:new 0 0 500 496.5;" xml:space="preserve">
<style type="text/css">
	.st0{fill:#231F20;}
	.st1{fill:#FFFFFF;}
	.st2{fill:#231F20;stroke:#FFFFFF;stroke-width:8;stroke-miterlimit:10;}
	.st3{fill:url(#SVGID_1_);}
	.st4{fill:url(#SVGID_2_);}
	.st5{fill:#E48F2E;}
</style>
<g id="Layer_1">
	<rect class="st1" width="500" height="496.5"/>
	<g>
		<path class="st0" d="M168.2,133.8c1.5,0.7,2.5,1.4,3,1.8c0.5,0.5,0.6,1.1,0.4,1.7c-0.2,0.6-0.6,1.4-1.1,2.4
			c-0.5,1-0.9,2.3-1.1,4.1c-0.5,3.7-2.1,6.3-4.8,7.9c-2.7,1.6-5.6,2.9-8.7,3.9c-3.1,1-5.9,2.1-8.5,3.3c-2.6,1.2-4.1,3.1-4.6,5.5
			c0,2,0.2,3.9,0.7,5.7c0.5,1.8,1.6,4,3.3,6.5c1.5,2.2,2.6,4.4,3.5,6.5c0.9,2.1,1,4.1,0.6,6.1c1.2,3.5,2.3,6.6,3.3,9.6
			c0.7,2.7,1.5,5.4,2.2,8.1c0.7,2.7,1,5,0.7,7c0,0.5,0.2,2,0.7,4.6c0.5,2.6,1.1,5.7,1.8,9.2c0.7,3.6,1.6,7.3,2.6,11.3
			c1,3.9,2,7.5,3,10.7c1,1.5,1.8,3.1,2.4,5c0.6,1.8,1.2,3.6,1.7,5.4c0.2,0.5,0.4,1.8,0.4,4.1s0.1,4.6,0.2,7.2c0.1,2.6,0.4,4.9,0.9,7
			c0.5,2.1,1.4,3.1,2.6,3.1c1.2,0,2.2-0.9,3-2.8c0.7-1.8,1.4-3.9,1.8-6.1c0.5-2.2,0.9-4.3,1.3-6.3c0.4-2,0.8-3.1,1.3-3.3
			c1.5-1.7,2.9-3.8,4.2-6.3c1.4-2.5,2.5-4.8,3.5-7c1-2.2,1.8-4.2,2.4-5.9c0.6-1.7,0.9-2.8,0.9-3.3c3.7-3.2,7.2-8.7,10.5-16.6
			c3.3-7.9,7.1-15.8,11.3-23.6c4.7-7.1,8.7-13.5,12.2-19c3.4-5.5,5.2-10.4,5.2-14.6c0.5-2.7,0.9-5.5,1.1-8.3
			c0.2-2.8,1.8-5.2,4.8-7.2l7.4-11.4c2.2-3.7,4.4-5,6.6-4.1c2.2,1,4.2,3.1,5.9,6.3c1.7,3.2,3.2,7,4.4,11.4c1.2,4.4,2.1,8.5,2.6,12.2
			c0,7.6,1.7,14.2,5.2,19.6c1,2,2.2,4.5,3.7,7.6c1.5,3.1,2,6.7,1.5,10.9c0,0.5,0.5,2.8,1.5,7c1,4.2,2.3,8.9,4.1,14.2
			c1.7,5.3,3.6,10.7,5.7,16.2c2.1,5.5,4.1,9.8,6.1,12.7c0.5,0.5,1,2.3,1.7,5.4c0.6,3.1,1.3,6.3,2,9.8c0.7,3.5,1.6,6.6,2.6,9.4
			c1,2.8,2,4.2,3,4.2c1,0,1.8-0.9,2.4-2.6c0.6-1.7,1.1-3.6,1.5-5.7c0.4-2.1,0.7-4.1,0.9-5.9c0.2-1.8,0.6-2.9,1.1-3.1
			c1.7-1.7,3.2-4.1,4.4-7c1.2-3,2.1-5.8,2.6-8.7c0.5-2.8,0.9-5.4,1.1-7.8c0.2-2.3,0.4-3.9,0.4-4.6c2.7-2.5,5.3-6.7,7.8-12.7
			c2.5-6,4.9-12.4,7.4-19c1.2-3,2.8-5.9,4.8-8.9c2-3,3.2-5.8,3.7-8.5c1.5-5.2,2.7-9.7,3.7-13.7c1-3.9,1.5-7.3,1.5-10
			c0-2.5-0.9-4.1-2.8-5c-1.8-0.9-3.9-1.5-6.1-2c-2.2-0.5-4.2-1.3-6.1-2.4c-1.8-1.1-2.8-3.4-2.8-6.8c0.2-2.2,1.2-4,3-5.4
			c1.7-1.3,3.6-2.5,5.5-3.5c2-1,3.9-1.7,5.9-2c2-0.4,3.3-0.6,4.1-0.6c3.2,0,5.2,0.1,6.1,0.4c0.9,0.2,2.3,1.1,4.2,2.6h16.6
			c3,0,5.2-0.1,6.6-0.4c1.5-0.2,2.8-0.6,3.9-0.9s2.3-0.7,3.7-1.1c1.3-0.4,3.4-0.6,6.1-0.6h17.4c3.2,0,5.7,0.9,7.6,2.6
			c1.8,1.7,2.5,4.7,2,8.9c0,3.5-0.5,6-1.5,7.8c-1,1.7-2.2,3.1-3.7,4.1c-1.5,1-3.1,1.6-5,1.8c-1.8,0.2-3.6,0.5-5.4,0.7
			c-2.7,0.2-5.4,0.5-7.9,0.7c-2.6,0.2-5.1,0.7-7.6,1.5c-2.5,0.7-4.6,1.8-6.5,3.3c-1.8,1.5-3.1,3.7-3.9,6.6l-3,13.3l-11.4,21.4
			c0,2.2-1.1,4.3-3.1,6.3c-2.1,2-4.1,3.7-6.1,5.2c-1,3-1.7,5.5-2,7.6c-0.4,2.1-0.7,4.2-1.1,6.3c-0.4,2.1-0.9,4.2-1.7,6.3
			c-0.7,2.1-2.2,4.6-4.4,7.6c-5.4,13.1-10.3,25.1-14.8,36.2c-2,4.7-3.8,9.4-5.5,14.2c-1.7,4.8-3.3,9.2-4.6,13.3
			c-1.4,4.1-2.5,7.7-3.3,10.9c-0.9,3.2-1.3,5.7-1.3,7.4c-1,3-1.8,5.7-2.6,8.1c-1.7,4.7-2.6,7.9-2.6,9.6c0,1-0.1,2.3-0.2,3.9
			c-0.1,1.6-0.5,3.2-1.1,4.8c-0.6,1.6-1.7,3-3.1,4.1s-3.5,1.7-5.9,1.7c-1.2,0-2.7-1.2-4.4-3.5c-1.7-2.3-3.3-3.3-4.8-2.8
			c-2-2-3.5-3.4-4.4-4.2c-1-0.9-2.2-2.9-3.7-6.1c-1.2-1-2-2.4-2.2-4.2c-0.2-1.8-0.6-3.5-1.1-5c0-2-0.4-3.7-1.1-5.2
			c-0.7-1.5-1.4-2.8-1.8-4.1c0-3.4-0.2-6.2-0.6-8.1c-0.4-2-1.5-3.7-3.5-5.2c-2.2-5.4-3.9-10-5-13.8c-1.1-3.8-2.2-7.4-3.3-10.7
			c-1.1-3.3-2.5-6.6-4.1-10c-1.6-3.3-4-7.2-7.2-11.6c0-2-0.3-5-0.9-9c-0.6-4.1-0.9-6.8-0.9-8.3l-5.2-10.3c0-1.2-0.2-3.1-0.7-5.5
			c-0.5-2.5-1.4-4.8-2.6-7c0-0.2-0.1-1.3-0.2-3.3c-0.1-2-0.4-4.1-0.7-6.3c-0.4-2.2-0.9-4.3-1.7-6.3c-0.7-2-1.8-3.1-3.3-3.3
			c-0.5,0-1,0.6-1.5,1.8c-0.5,1.2-0.9,2.6-1.1,4.1c-0.2,1.5-0.5,3-0.7,4.4c-0.2,1.5-0.5,2.5-0.7,3c-2.2,1.7-4.1,4-5.7,6.8
			c-1.6,2.8-3,5.9-4.2,9.2c-1.2,3.3-2.4,6.6-3.5,10c-1.1,3.3-2.2,6.2-3.1,8.7c-5.9,11.1-11.1,21.3-15.5,30.7
			c-3.9,8.1-7.6,16-10.9,23.6c-3.3,7.6-5.1,13.2-5.4,16.6l-10.3,20.7c0,2-0.2,3.9-0.6,5.9c-0.4,2-1.5,3.7-3.5,5.2
			c-3.5,1.7-6.2,2.7-8.1,3c-2,0.2-4.8,0.4-8.5,0.4c-1-1.7-2-4.1-3.1-7.2c-1.1-3.1-2.4-6.2-3.9-9.4c-1.2-1-1.8-2.4-1.7-4.2
			c0.1-1.8-0.1-3.5-0.6-5c0.5-2,0.6-3.7,0.4-5.2c-0.2-1.5-0.6-2.8-1.1-4.1c0.5-3.4,0.6-6.2,0.2-8.1c-0.4-2-1.5-3.7-3.5-5.2
			c-3-10.8-5.4-20.7-7.2-29.7c-1.8-9-4.9-17.5-9-25.7c-0.7-1-1.4-2.5-1.8-4.6c-0.5-2.1-1-4.1-1.5-6.1c-0.5-2.5-0.7-5-0.7-7.8
			l1.1-10.3c0-0.5-0.4-2-1.3-4.6c-0.9-2.6-1.9-5.5-3.1-8.7c-1-2.7-2.2-5.5-3.7-8.3c-1.5-2.8-2.2-4.5-2.2-5
			c-2-10.6-4.6-18.8-7.9-24.6c-3.3-5.8-6.6-10.4-10-13.8c-3.3-3.4-6.1-6.3-8.3-8.5c-2.2-2.2-3.1-5-2.6-8.5c0.5-2.2,1.8-4.7,3.9-7.4
			c2.1-2.7,4.9-4.1,8.3-4.1h47.3c2.5-0.5,4.8-1,7-1.5c2-0.5,3.8-0.9,5.5-1.1c1.7-0.2,3.1-0.4,4.1-0.4H168.2z"/>
	</g>
</g>
<g id="Layer_2">
</g>
<g id="Layer_3">
</g>
</svg>
