<svg xmlns="http://www.w3.org/2000/svg" viewBox="0 0 500 500" style="enable-background:new 0 0 500 500" xml:space="preserve"><path style="fill:#edc4dd" d="M0 2.8h500v496.5H0z"/><path d="M-34.3-31.3h568.7v564.7H-34.3z"/><path style="fill:#fff" d="M76.8 75.8h346.4v346.4H76.8z"/><path style="fill:none" d="M1.1 83.9h498v303H1.1z"/><path d="M253.6 244.9c-4.2 0-7 2.8-7 7s2.8 7 7 7h17.5c10.9 0 17.5 6.6 17.5 17.5v91c0 10.8-6.7 17.5-17.5 17.5h-42c-10.9 0-17.5-6.7-17.5-17.5v-126c0-10.8 6.7-17.5 17.5-17.5h17.5c4.2 0 7-2.8 7-7s-2.8-7-7-7h-17.5c-10.9 0-17.5-6.7-17.5-17.5v-50.8c0-23.5 15.1-38.5 38.5-38.5 23.5 0 38.5 15 38.5 38.5v85.8c0 10.9-6.7 17.5-17.5 17.5h-17.5z" style="enable-background:new"/></svg>