<?xml version="1.0" encoding="utf-8"?>
<!-- Generator: Adobe Illustrator 22.0.1, SVG Export Plug-In . SVG Version: 6.00 Build 0)  -->
<svg version="1.1" xmlns="http://www.w3.org/2000/svg" xmlns:xlink="http://www.w3.org/1999/xlink" x="0px" y="0px"
	 viewBox="0 0 500 496.5" style="enable-background:new 0 0 500 496.5;" xml:space="preserve">
<style type="text/css">
	.st0{fill:#231F20;stroke:#FFFFFF;stroke-width:8;stroke-miterlimit:10;}
	.st1{stroke:#FFFFFF;stroke-width:8;stroke-miterlimit:10;}
	.st2{fill:#FFFFFF;}
	.st3{fill:#FFFFFF;stroke:#231F20;stroke-width:8;stroke-miterlimit:10;}
	.st4{stroke:#FFFFFF;stroke-width:8.0055;stroke-miterlimit:10;}
	.st5{fill:#0AFFCD;}
	.st6{fill:#231F20;}
	.st7{fill:#FFFFFF;stroke:#FFFFFF;stroke-width:8;stroke-miterlimit:10;}
	.st8{fill:#BBBDBF;stroke:#FFFFFF;stroke-width:8;stroke-miterlimit:10;}
	.st9{fill:#BBBDBF;}
	.st10{fill:#0AFFCD;stroke:#FFFFFF;stroke-width:8;stroke-miterlimit:10;}
</style>
<g id="Layer_1">
	<rect class="st3" width="500" height="496.5"/>
	<g>
		<path class="st6" d="M331.1,292.2c0,28-7.5,48.3-22.6,61c-15.1,12.7-35,19-59.8,19h-85.6c10.9-9.9,16.4-23.6,16.4-41.2V133.4
			c0-17.6-5.5-31.3-16.4-41.2h84.8c24,0,43.2,5.1,57.6,15.2c14.4,10.1,21.6,25.5,21.6,46c0,16.3-5.2,29.5-15.6,39.8
			c-10.4,10.3-23.6,16.3-39.6,18.2C311.3,220.7,331.1,247.6,331.1,292.2z M231.5,99.4v102.4c4.5,0.8,8.4,1.2,11.6,1.2
			c11.5,0,19.5-3.9,24.2-11.6c4.7-7.7,7-19.9,7-36.4C274.3,117.9,260,99.4,231.5,99.4z M231.5,365c16.3,0,28.1-6.1,35.6-18.2
			c7.5-12.1,11.2-30.3,11.2-54.6c0-17.6-1.2-31.4-3.6-41.4c-2.4-10-6.9-18.1-13.6-24.4c-6.7-6.3-16.5-11.3-29.6-15V365z"/>
	</g>
</g>
<g id="Layer_2">
</g>
</svg>
