<?xml version="1.0" encoding="utf-8"?>
<!-- Generator: Adobe Illustrator 22.0.1, SVG Export Plug-In . SVG Version: 6.00 Build 0)  -->
<svg version="1.1" xmlns="http://www.w3.org/2000/svg" xmlns:xlink="http://www.w3.org/1999/xlink" x="0px" y="0px"
	 viewBox="0 0 500 500" style="enable-background:new 0 0 500 500;" xml:space="preserve">
<style type="text/css">
	.st0{fill:#231F20;}
	.st1{fill:#FFFFFF;}
	.st2{fill:#231F20;stroke:#FFFFFF;stroke-width:8;stroke-miterlimit:10;}
	.st3{fill:url(#SVGID_1_);}
	.st4{fill:url(#SVGID_2_);}
	.st5{fill:#E48F2E;}
</style>
<g id="Layer_1">
	<rect x="-57.7" y="-59.7" class="st0" width="615.5" height="615.5"/>
	<g>
		<path class="st1" d="M185.5,192.5c-1.6,1.1-3.2,1.5-4.8,1.2c-1.6-0.3-3.1-0.9-4.6-1.8c-1.5-0.9-2.8-2.1-4-3.6
			c-1.2-1.5-2.3-2.7-3.4-3.8c-2.4-1.9-3.4-4.1-3-6.8c0.4-2.7,1.6-5.4,3.6-8.2s4.3-5.5,7-8c2.7-2.5,4.9-4.5,6.8-5.8
			c3.2-2.1,6.9-4.7,11-7.8c4.1-3.1,8.5-5.9,13-8.6c4.5-2.7,9.2-4.8,14-6.4c4.8-1.6,9.2-2.1,13.2-1.6c2.1,0,5.1,0.1,9,0.4
			c3.9,0.3,7.3,0.1,10.2-0.4c2.7-1.1,6.2-1.1,10.6-0.2c4.4,0.9,8.9,2.4,13.6,4.4c4.7,2,8.9,4.5,12.8,7.4c3.9,2.9,6.6,5.7,8.2,8.4
			c5.6,8,9.5,14.8,11.6,20.4c2.1,5.6,3.1,10.8,2.8,15.6c-0.3,4.8-1.5,9.6-3.6,14.4c-2.1,4.8-4.5,10.5-7.2,17.2
			c-1.3,2.9-2.4,6.1-3.2,9.6c-0.8,3.5-2,6.7-3.6,9.6c-1.1,2.4-2.8,4.9-5.2,7.6c-2.4,2.7-5.1,5.3-8,7.8c-2.9,2.5-5.8,5-8.6,7.4
			c-2.8,2.4-5.1,4.8-7,7.2c-2.9,3.2-5.7,6.7-8.4,10.6c-2.7,3.9-5.1,7.7-7.2,11.4c-1.6,4-3.8,7.7-6.6,11.2c-2.8,3.5-5.5,6.7-8.2,9.8
			c-2.7,3.1-4.9,5.9-6.8,8.6c-1.9,2.7-2.8,5.1-2.8,7.2c0,1.3,1.1,2,3.4,2c2.3,0,3.7-0.3,4.2-0.8c4-1.1,7.6-1.6,10.8-1.6
			c3.2,0,6.3,0.1,9.4,0.4c3.1,0.3,6.3,0.5,9.6,0.6c3.3,0.1,7.1-0.1,11.4-0.6c4.5-0.8,9.2-2.6,14-5.4c4.8-2.8,9.6-5.7,14.4-8.6
			c4.8-2.9,9.3-5.6,13.6-8c4.3-2.4,8.1-3.6,11.6-3.6c2.9,0,4.6,1.6,5,4.8c0.4,3.2,0,7.3-1.2,12.2c-1.2,4.9-3,10.3-5.4,16
			c-2.4,5.7-4.8,11.1-7.2,16.2c-2.4,5.1-4.6,9.4-6.6,13s-3.3,5.5-3.8,5.8c-3.7,2.1-7.9,3.1-12.4,3c-4.5-0.1-9.3-0.7-14.2-1.6
			c-4.9-0.9-9.7-2.1-14.4-3.4c-4.7-1.3-8.7-2.1-12.2-2.4c-1.1-0.3-3.4-0.4-7-0.4c-3.6,0-7.9,0-12.8,0c-4.9,0-10.3,0-16,0
			c-5.7,0-11.3-0.3-16.6-0.8c-2.9-0.5-5.7-0.7-8.2-0.6c-2.5,0.1-4.9,0.4-7.2,0.8c-2.3,0.4-4.4,0.7-6.4,0.8c-2,0.1-3.7-0.2-5-1
			c-1.6-1.1-3.2-2.6-4.8-4.6c-1.6-2-2.9-4.1-4-6.2c-1.1-2.1-1.8-4.3-2.2-6.4c-0.4-2.1-0.3-3.9,0.2-5.2c1.1-2.7,2.7-4.9,5-6.6
			c2.3-1.7,4.7-3.3,7.4-4.6c2.7-1.3,5.3-2.6,7.8-3.8c2.5-1.2,4.6-2.9,6.2-5c2.9-3.7,6.3-7.9,10-12.4c3.7-4.5,7.9-8.5,12.4-12
			c1.6-2.1,3.3-4,5.2-5.6c1.9-1.6,3.9-3.9,6-6.8c0.5-1.6,1.1-3.5,1.6-5.6c0.5-2.1,1.1-4.3,1.6-6.4c1.9-5.9,4.7-11.4,8.6-16.6
			c3.9-5.2,7.6-10.5,11.2-15.8c3.6-5.3,6.6-11,9-17c2.4-6,3.2-12.6,2.4-19.8c-1.1-7.2-4.1-13.7-9.2-19.6
			c-5.1-5.9-10.9-10.1-17.6-12.8c-6.7-2.7-13.5-3.3-20.6-2c-7.1,1.3-13.1,5.5-18.2,12.4c-1.6,1.6-3.1,3.3-4.6,5.2
			C189.4,188.4,187.6,190.4,185.5,192.5z"/>
	</g>
</g>
<g id="Layer_2">
</g>
<g id="Layer_3">
</g>
</svg>
