<?xml version="1.0" encoding="utf-8"?>
<!-- Generator: Adobe Illustrator 22.0.1, SVG Export Plug-In . SVG Version: 6.00 Build 0)  -->
<svg version="1.1" xmlns="http://www.w3.org/2000/svg" xmlns:xlink="http://www.w3.org/1999/xlink" x="0px" y="0px"
	 viewBox="0 0 500 496.5" style="enable-background:new 0 0 500 496.5;" xml:space="preserve">
<style type="text/css">
	.st0{fill:#231F20;stroke:#FFFFFF;stroke-width:8;stroke-miterlimit:10;}
	.st1{stroke:#FFFFFF;stroke-width:8;stroke-miterlimit:10;}
	.st2{fill:#FFFFFF;}
	.st3{fill:#FFFFFF;stroke:#231F20;stroke-width:8;stroke-miterlimit:10;}
	.st4{stroke:#FFFFFF;stroke-width:8.0055;stroke-miterlimit:10;}
	.st5{fill:#0AFFCD;}
	.st6{fill:#231F20;}
	.st7{fill:#FFFFFF;stroke:#FFFFFF;stroke-width:8;stroke-miterlimit:10;}
	.st8{fill:#BBBDBF;stroke:#FFFFFF;stroke-width:8;stroke-miterlimit:10;}
	.st9{fill:#BBBDBF;}
	.st10{fill:#0AFFCD;stroke:#FFFFFF;stroke-width:8;stroke-miterlimit:10;}
</style>
<g id="Layer_1">
	<rect class="st8" width="500" height="496.5"/>
	<g>
		<path class="st6" d="M322.3,156.2v54.4l-69.2-24c0.3,10.9,2.4,19.8,6.4,26.6c4,6.8,10.8,13.3,20.4,19.4
			c-10.1,23.7-17.3,49.2-21.6,76.4c-4.3,27.2-6.4,58.4-6.4,93.6h-4.8c0-35.2-2.1-66.4-6.4-93.6c-4.3-27.2-11.5-52.7-21.6-76.4
			c9.6-6.1,16.4-12.6,20.4-19.4s6.1-15.7,6.4-26.6l-69.2,24v-54.4l2-0.4c25.6,15.2,48,23.2,67.2,24c-0.8-13.3-3.4-27.4-7.8-42.2
			c-4.4-14.8-10.5-29-18.2-42.6l0.4-2.8h58.4l0.4,2.8c-7.7,13.6-13.8,27.8-18.2,42.6c-4.4,14.8-7,28.9-7.8,42.2
			c19.2-0.8,41.6-8.8,67.2-24L322.3,156.2z"/>
	</g>
</g>
<g id="Layer_2">
</g>
</svg>
