<?xml version="1.0" encoding="utf-8"?>
<!-- Generator: Adobe Illustrator 22.0.1, SVG Export Plug-In . SVG Version: 6.00 Build 0)  -->
<svg version="1.1" xmlns="http://www.w3.org/2000/svg" xmlns:xlink="http://www.w3.org/1999/xlink" x="0px" y="0px"
	 viewBox="0 0 500 500" style="enable-background:new 0 0 500 500;" xml:space="preserve">
<style type="text/css">
	.st0{fill:#231F20;}
	.st1{fill:#FFFFFF;}
	.st2{fill:#231F20;stroke:#FFFFFF;stroke-width:8;stroke-miterlimit:10;}
	.st3{fill:url(#SVGID_1_);}
	.st4{fill:url(#SVGID_2_);}
	.st5{fill:#E48F2E;}
</style>
<g id="Layer_1">
	<rect x="-36.6" y="-37.6" class="st0" width="574" height="574"/>
	<g>
		<path class="st1" d="M197.7,183.9c4.8-0.8,10.7-2.6,17.8-5.4c7.1-2.8,14.6-5.8,22.6-9s16-6,24-8.4c8-2.4,15.1-3.6,21.2-3.6
			c2.1-0.5,4.3-0.6,6.4-0.2c2.1,0.4,4,1.1,5.6,2.2c1.3,0.5,2.2,2.3,2.6,5.2c0.4,2.9,0.3,5.3-0.2,7.2c-0.8,6.9-1.5,12-2.2,15.2
			c-0.7,3.2-1.4,6-2.2,8.4c-0.8,2.4-1.9,5.2-3.2,8.4c-1.3,3.2-2.9,8.1-4.8,14.8c-2.1,9.3-4,19.7-5.6,31c-1.6,11.3-3.5,21.7-5.6,31
			c-0.5,2.9-1.4,7.2-2.6,12.8c-1.2,5.6-1.8,9.9-1.8,12.8c-0.8,3.5-0.9,6.3-0.4,8.6c0.5,2.3,1.6,4.3,3.2,6c1.6,1.7,3.6,3.3,6,4.8
			c2.4,1.5,5.1,3.1,8,5c3.5,2.1,7.1,4.2,10.8,6.2c3.7,2,6.4,4.1,8,6.2c4,3.7,5.3,7.1,3.8,10.2c-1.5,3.1-5,4.9-10.6,5.4
			c-2.7,0-5.3-1-8-3c-2.7-2-5.5-3.3-8.4-3.8c-5.6-0.5-10-0.7-13.2-0.6c-3.2,0.1-7.3-0.3-12.4-1.4c-5.6-1.1-12.3-1.3-20.2-0.6
			c-7.9,0.7-15.7,1.5-23.4,2.6c-7.7,1.1-15.1,1.7-22,2c-6.9,0.3-12.1-0.8-15.6-3.2c-4.3-2.7-6.3-5.3-6-8c0.3-2.7,1.9-5.1,4.8-7.4
			c2.9-2.3,6.7-4.3,11.2-6.2c4.5-1.9,9-3.5,13.4-4.8c4.4-1.3,8.2-2.4,11.4-3.2c3.2-0.8,4.9-1.2,5.2-1.2c4-5.3,7.1-11.4,9.4-18.2
			c2.3-6.8,4.1-13.8,5.4-21c1.3-7.2,2.3-14.3,3-21.2c0.7-6.9,1.4-13.2,2.2-18.8c0.8-3.2,1.3-6,1.6-8.4c0.3-2.4,0.5-4.7,0.8-6.8
			c0.3-2.1,0.6-4.2,1-6.2s1.1-4.5,2.2-7.4c0-0.3,0-1.2,0-2.8c0-1.6-0.1-3.3-0.2-5c-0.1-1.7-0.3-3.3-0.4-4.6c-0.1-1.3-0.3-2-0.6-2
			c-2.4-0.5-4.9-0.3-7.6,0.6c-2.7,0.9-5.3,2.1-8,3.6c-2.7,1.5-5.4,2.8-8.2,4c-2.8,1.2-5.5,1.8-8.2,1.8c-3.5,0-6.7-0.1-9.6-0.4
			c-2.9-0.3-4.9-2.4-6-6.4c-0.5-3.5-0.5-6.8,0.2-10C192.9,187.5,194.7,185.2,197.7,183.9z"/>
	</g>
</g>
<g id="Layer_2">
</g>
<g id="Layer_3">
</g>
</svg>
