<?xml version="1.0" encoding="utf-8"?>
<!-- Generator: Adobe Illustrator 22.0.1, SVG Export Plug-In . SVG Version: 6.00 Build 0)  -->
<svg version="1.1" xmlns="http://www.w3.org/2000/svg" xmlns:xlink="http://www.w3.org/1999/xlink" x="0px" y="0px"
	 viewBox="0 0 500 500" style="enable-background:new 0 0 500 500;" xml:space="preserve">
<style type="text/css">
	.st0{fill:#231F20;}
	.st1{fill:#FFFFFF;}
	.st2{fill:#231F20;stroke:#FFFFFF;stroke-width:8;stroke-miterlimit:10;}
	.st3{fill:url(#SVGID_1_);}
	.st4{fill:url(#SVGID_2_);}
	.st5{fill:#E48F2E;}
	.st6{fill:#34449C;}
</style>
<g id="Layer_1">
	<g>
		<g>
			<path class="st6" d="M250.7,123.6c0.8,0,2.1,0.2,4,0.6c1.9,0.4,3.9,0.8,6,1.2c2.1,0.4,4.2,0.7,6.2,1c2,0.3,3.5,0.4,4.6,0.4
				c0.5,0,1.5,0.5,2.8,1.6c1.3,1.1,2.6,2.4,3.8,4c1.2,1.6,2.3,3.4,3.2,5.4c0.9,2,1.4,3.9,1.4,5.8c0,1.1-1.6,2-4.8,2.8
				c-3.2,0.8-6.8,1.6-10.8,2.4c-4,0.8-7.6,1.7-10.8,2.8c-3.2,1.1-4.8,2.4-4.8,4v28c0.5,2.1,1.2,4.1,2,6c0.5,1.6,1.1,3.2,1.6,4.8
				c0.5,1.6,0.8,2.8,0.8,3.6l-4.4,18.8c0,0.8,0.2,2.3,0.6,4.4c0.4,2.1,0.9,4.4,1.6,6.8c0.7,2.4,1.2,4.7,1.6,6.8
				c0.4,2.1,0.6,3.6,0.6,4.4l3.6,20c0,5.6-0.6,10.8-1.8,15.6c-1.2,4.8-1.8,8.1-1.8,10V296c0,1.6-0.7,3-2.2,4.2
				c-1.5,1.2-2.2,4.6-2.2,10.2c0,1.1,0.4,2.3,1.2,3.8c0.8,1.5,1.8,2.8,3,4c1.2,1.2,2.5,2.2,3.8,3c1.3,0.8,2.4,1.2,3.2,1.2l8.8,2.4
				c7.5,3.5,11.2,9.1,11.2,16.8c0,3.2-2.2,5.8-6.6,7.8s-8.9,3-13.4,3h-6.8h-7.6h-7.6l-14.8-4.4c-1.6,0-3.9,0.4-6.8,1.2
				c-2.9,0.8-6,1.7-9.2,2.8c-3.2,1.1-6.1,2-8.8,2.8c-2.7,0.8-4.4,1.2-5.2,1.2c-1.6,0-3.8-0.9-6.6-2.6c-2.8-1.7-4.2-3.5-4.2-5.4
				c0-2.9,1.5-5.5,4.6-7.8c3.1-2.3,6.4-4.5,10-6.8c3.6-2.3,6.7-4.7,9.2-7.4c2.5-2.7,3.4-6,2.6-10c-2.1-4-2.7-7-1.6-9
				c1.1-2,1.6-3.9,1.6-5.8v-10.8v-26.8v-58l-4.4-10.8c0.5-2.9,1.2-5.7,2-8.4c0.5-2.1,1.1-4.2,1.6-6.2c0.5-2,0.8-3.5,0.8-4.6
				c0-5.3-0.4-9.5-1.2-12.6c-0.8-3.1-1.9-5.5-3.2-7.4c-1.3-1.3-2.8-2.2-4.4-2.6c-1.6-0.4-3.3-0.7-5-0.8c-1.7-0.1-3.5-0.3-5.4-0.6
				c-1.9-0.3-3.6-0.8-5.2-1.6c-1.6-1.1-2.9-2.8-4-5.2c-1.1-2.4-1.6-6.1-1.6-11.2c0-1.1,0.1-2.1,0.4-3.2c0.3-0.8,0.6-1.6,1-2.4
				c0.4-0.8,1.1-1.2,2.2-1.2h7.6h14.4c1.1,0,2.3,0.1,3.8,0.4c1.5,0.3,2.9,0.7,4.2,1.2c1.3,0.5,2.8,1.1,4.4,1.6c1.6,0,3.6-0.1,6-0.4
				c2.4-0.3,4.7-0.7,6.8-1.2c2.7-0.5,5.5-1.1,8.4-1.6h4.4c1.1,0,2.4-0.5,4-1.6L250.7,123.6z"/>
		</g>
	</g>
</g>
<g id="Layer_2">
</g>
<g id="Layer_3">
</g>
</svg>
