<?xml version="1.0" encoding="utf-8"?>
<!-- Generator: Adobe Illustrator 22.0.1, SVG Export Plug-In . SVG Version: 6.00 Build 0)  -->
<svg version="1.1" xmlns="http://www.w3.org/2000/svg" xmlns:xlink="http://www.w3.org/1999/xlink" x="0px" y="0px"
	 viewBox="0 0 500 496.5" style="enable-background:new 0 0 500 496.5;" xml:space="preserve">
<style type="text/css">
	.st0{fill:#231F20;stroke:#FFFFFF;stroke-width:8;stroke-miterlimit:10;}
	.st1{stroke:#FFFFFF;stroke-width:8;stroke-miterlimit:10;}
	.st2{fill:#FFFFFF;}
	.st3{fill:#FFFFFF;stroke:#231F20;stroke-width:8;stroke-miterlimit:10;}
	.st4{stroke:#FFFFFF;stroke-width:8.0055;stroke-miterlimit:10;}
	.st5{fill:#0AFFCD;}
	.st6{fill:#231F20;}
	.st7{fill:#FFFFFF;stroke:#FFFFFF;stroke-width:8;stroke-miterlimit:10;}
	.st8{fill:#BBBDBF;stroke:#FFFFFF;stroke-width:8;stroke-miterlimit:10;}
	.st9{fill:#BBBDBF;}
	.st10{fill:#0AFFCD;stroke:#FFFFFF;stroke-width:8;stroke-miterlimit:10;}
</style>
<g id="Layer_1">
	<rect class="st1" width="500" height="496.5"/>
	<g>
		<path class="st2" d="M249.9,211.6c21.3,2.7,38.1,11.9,50.4,27.6c12.3,15.7,18.4,35.5,18.4,59.2c0,17.1-3.9,32.7-11.6,46.8
			c-7.7,14.1-17.4,25.2-29,33.2c-11.6,8-22.7,12-33.4,12c-10.1,0-18.5-0.8-25.2-2.4c-6.7-1.6-13.9-3.9-21.6-6.8
			c-2.4-1.1-4.9-1.6-7.6-1.6c-4.5,0-9.2,1.7-14,5.2l8-119.6h2.4c8.3,33.9,17.4,61.7,27.4,83.4c10,21.7,20.7,32.6,32.2,32.6
			c8,0,14.5-4,19.4-12c4.9-8,7.4-19.3,7.4-34c0-25.3-4.5-46.1-13.6-62.2c-9.1-16.1-21.6-24.9-37.6-26.2l-2.4-3.2l54-84.4h-52
			c-8.3,0-16.1,1.5-23.6,4.6c-7.5,3.1-13.5,7.5-18,13.4l5.2-70h129.6v3.2L249.9,211.6z"/>
	</g>
</g>
<g id="Layer_2">
</g>
</svg>
