<?xml version="1.0" encoding="utf-8"?>
<!-- Generator: Adobe Illustrator 22.0.1, SVG Export Plug-In . SVG Version: 6.00 Build 0)  -->
<svg version="1.1" xmlns="http://www.w3.org/2000/svg" xmlns:xlink="http://www.w3.org/1999/xlink" x="0px" y="0px"
	 viewBox="0 0 500 496.5" style="enable-background:new 0 0 500 496.5;" xml:space="preserve">
<style type="text/css">
	.st0{fill:#231F20;stroke:#FFFFFF;stroke-width:8;stroke-miterlimit:10;}
	.st1{stroke:#FFFFFF;stroke-width:8;stroke-miterlimit:10;}
	.st2{fill:#FFFFFF;}
	.st3{fill:#FFFFFF;stroke:#231F20;stroke-width:8;stroke-miterlimit:10;}
	.st4{stroke:#FFFFFF;stroke-width:8.0055;stroke-miterlimit:10;}
	.st5{fill:#0AFFCD;}
	.st6{fill:#231F20;}
	.st7{fill:#FFFFFF;stroke:#FFFFFF;stroke-width:8;stroke-miterlimit:10;}
	.st8{fill:#BBBDBF;stroke:#FFFFFF;stroke-width:8;stroke-miterlimit:10;}
	.st9{fill:#BBBDBF;}
	.st10{fill:#0AFFCD;stroke:#FFFFFF;stroke-width:8;stroke-miterlimit:10;}
</style>
<g id="Layer_1">
	<rect class="st0" width="500" height="496.5"/>
	<rect class="st1" width="500" height="496.5"/>
	<rect x="51.6" y="47.9" class="st2" width="396.7" height="396.7"/>
	<g>
		<path class="st6" d="M180.7,127c4,2.3,7.8,3.5,11.5,3.5c3,0,6-0.7,8.8-2.1c18.2-9.3,34-14,47.2-14c19.8,0,35.9,5.6,48.1,16.8
			s18.4,28.8,18.4,52.8c0,16.6-4.1,32.2-12.4,46.9c-8.3,14.7-18.8,28.3-31.7,40.8c-12.8,12.5-30,27.6-51.5,45.3h55.3
			c15.4,0,27.4-4.8,36.1-14.3l-4.6,59.8H181.1v-2.8l53.9-77.3c12.6-18,21.5-34.4,26.6-49.4c5.1-14.9,7.7-31,7.7-48.3
			c0-21-1.9-36.7-5.8-47.1c-3.9-10.4-10.1-15.6-18.7-15.6c-12.1,0-22.1,11.8-29.9,35.5c-7.8,23.7-13.7,49.3-17.7,76.8H194L180.7,127
			z"/>
	</g>
</g>
<g id="Layer_2">
</g>
</svg>
