<svg xmlns="http://www.w3.org/2000/svg" viewBox="0 0 500 500" style="enable-background:new 0 0 500 500" xml:space="preserve"><path style="fill:#edc4dd" d="M0 2.8h500v496.5H0z"/><path d="M-34.3-31.3h568.7v564.7H-34.3z"/><path style="fill:none" d="M1.1 83.9h498v303H1.1z"/><g style="enable-background:new"><path d="M264.1 251.9c0 4.2 2.8 7 7 7 10.9 0 17.5 6.6 17.5 17.5v71.8c0 23.5-15 38.5-38.5 38.5s-38.5-15-38.5-38.5v-36.8c0-10.9 6.7-17.5 17.5-17.5h17.5c4.2 0 7-2.8 7-7s-2.8-7-7-7h-7c-17.2 0-28-10.8-28-28s10.9-28 28-28h7c4.2 0 7-2.8 7-7s-2.8-7-7-7h-17.5c-10.9 0-17.5-6.7-17.5-17.5v-56c0-10.9 6.7-17.5 17.5-17.5h42c10.9 0 17.5 6.7 17.5 17.5v91c0 10.9-6.6 17.5-17.5 17.5-4.2 0-7 2.8-7 7z" style="fill:#fff"/></g></svg>