<svg xmlns="http://www.w3.org/2000/svg" viewBox="0 0 500 500" style="enable-background:new 0 0 500 500" xml:space="preserve"><path style="fill:#edc4dd" d="M0 2.8h500v496.5H0z"/><path d="M-34.3-31.3h568.7v564.7H-34.3z"/><path style="fill:#fff" d="M51.6 50.6h396.7v396.7H51.6z"/><path style="fill:none" d="M1.1 83.9h498v303H1.1z"/><path d="M246.6 244.9c-4.2 0-7 2.8-7 7s2.8 7 7 7h21c17.2 0 28 10.8 28 28v70c0 17.1-10.9 28-28 28h-45.5c-10.9 0-17.5-6.7-17.5-17.5V148.6c0-27.7 17.9-45.5 45.5-45.5s45.5 17.9 45.5 45.5v68.3c0 17.2-10.9 28-28 28h-21zm-7-28c0 4.2 2.8 7 7 7s7-2.8 7-7v-35c0-4.2-2.8-7-7-7s-7 2.8-7 7v35zm14 70c0-4.2-2.8-7-7-7s-7 2.8-7 7v35c0 4.2 2.8 7 7 7s7-2.8 7-7v-35z" style="enable-background:new"/></svg>