<?xml version="1.0" encoding="utf-8"?>
<!-- Generator: Adobe Illustrator 22.0.1, SVG Export Plug-In . SVG Version: 6.00 Build 0)  -->
<svg version="1.1" xmlns="http://www.w3.org/2000/svg" xmlns:xlink="http://www.w3.org/1999/xlink" x="0px" y="0px"
	 viewBox="0 0 500 496.5" style="enable-background:new 0 0 500 496.5;" xml:space="preserve">
<style type="text/css">
	.st0{fill:#231F20;}
	.st1{fill:#FFFFFF;}
	.st2{fill:#231F20;stroke:#FFFFFF;stroke-width:8;stroke-miterlimit:10;}
	.st3{fill:url(#SVGID_1_);}
	.st4{fill:url(#SVGID_2_);}
	.st5{fill:#34449D;}
	.st6{fill:#A4E0F2;}
	.st7{fill:#E48F2E;}
	.st8{clip-path:url(#SVGID_4_);}
	.st9{clip-path:url(#SVGID_6_);}
	.st10{fill:#EAD188;}
	.st11{fill:url(#SVGID_9_);}
</style>
<g id="Layer_1">
	<linearGradient id="SVGID_1_" gradientUnits="userSpaceOnUse" x1="246.0751" y1="-20.5557" x2="252.5707" y2="674.4737">
		<stop  offset="0" style="stop-color:#34449D"/>
		<stop  offset="5.834101e-02" style="stop-color:#4157A7"/>
		<stop  offset="0.1763" style="stop-color:#6487C2"/>
		<stop  offset="0.3418" style="stop-color:#9CD5EC"/>
		<stop  offset="0.3649" style="stop-color:#A4E0F2"/>
		<stop  offset="0.4568" style="stop-color:#B5DCD9"/>
		<stop  offset="0.6514" style="stop-color:#DFD399"/>
		<stop  offset="0.7" style="stop-color:#EAD188"/>
		<stop  offset="1" style="stop-color:#E48F2E"/>
	</linearGradient>
	<rect x="-22" y="-20.5" class="st3" width="541.2" height="537.4"/>
	<g>
		<path class="st0" d="M127.2,208.3c3.6-4.5,8.3-8.5,14.2-12.1c5.9-3.6,12.3-6.8,19.4-9.5c7-2.7,14.3-4.8,21.8-6.3
			c7.5-1.5,14.5-2.2,21.2-2.2c5.7,0,10.8,0.8,15.3,2.5c4.5,1.7,9.3,3.4,14.4,5.2c1.5,0.6,3.5,3.2,6.1,7.7c2.5,4.5,4.7,8.7,6.5,12.6
			c0,0.9,0.3,2,0.9,3.4c0.6,1.4,1.3,2.6,2.2,3.8c0.9,1.2,1.8,2.2,2.7,3.2c0.9,0.9,1.5,1.2,1.8,0.9c1.8,0,3.7-0.7,5.8-2.2
			c2.1-1.5,3.9-2.8,5.4-4c0.6-3.3,1.3-5.5,2.2-6.5c0.9-1,1.3-1.9,1.3-2.5c2.4-1.2,4.3-1.9,5.8-2.2c1.5-0.3,2.8-1.6,4.1-4
			c0.9-0.9,1.9-1.8,2.9-2.7c1-0.9,1.9-1.6,2.5-2.2l2.2-2.2c3.9-3.3,8.3-6.4,13.3-9.2c5-2.8,10.6-5.3,16.9-7.4h23.8
			c1.2,0.3,3.4,0.9,6.8,1.8c3.3,0.9,6.8,1.9,10.6,2.9c3.7,1.1,7.3,2.2,10.6,3.4c3.3,1.2,5.7,2.2,7.2,3.2l5,2.7
			c1.2,1.5,2.4,3.7,3.6,6.5c1.2,2.9,2.4,6.1,3.6,9.7c2.1,4.5,3,9,2.7,13.5c-0.3,4.5-0.8,8.4-1.3,11.7v3.6c-0.3,3.6-0.7,7.4-1.1,11.5
			s-1,8-1.6,11.7c-0.6,3.8-1.3,7.3-2.2,10.6c-0.9,3.3-1.8,5.9-2.7,7.7c-1.2,1.2-2.2,2.7-2.9,4.5c-0.8,1.8-1.7,3.6-2.9,5.4
			c-1.2,1.5-2.4,2.9-3.6,4c-0.9,1.2-1.6,2.2-2,3.1c-0.5,0.9-0.4,1.5,0.2,1.8c-2.4,5.1-5.3,9.2-8.5,12.1c-3.3,3-6.3,5.1-9,6.3
			c-3,1.5-4.7,2.4-5.2,2.7c-0.5,0.3-0.7,0.8-0.7,1.4v-1.4c-2.4,1.2-4.2,2.4-5.4,3.6c-1.8,2.1-4.4,3.5-7.7,4.3
			c-3.3,0.8-6.5,1.4-9.5,2c-2.1,0.6-4.3,1.3-6.5,2.2c-2.2,0.9-4.3,1.3-6.1,1.3c-3.9,0-7.2,0.2-9.9,0.7c-2.7,0.5-5.7,0.7-9,0.7
			c-3.3-1.8-6.9-2.9-10.8-3.4c-3.9-0.5-8.7-1.4-14.4-2.9c-0.6,0-1.8-1.1-3.6-3.4s-5.6-5.3-11.2-9.2c-0.6-1.8-2-3.2-4-4.3
			c-2.1-1-4-4.1-5.8-9.2l-0.9-0.9c-0.9-0.9-1.5-1.8-1.8-2.7c-1.8-0.9-3.5-1.9-5-3.2c-1.5-0.6-2.9-1.3-4-2c-1.2-0.7-2-1.1-2.2-1.1
			c-0.6,0-1.7,1.3-3.2,3.8c-1.5,2.6-2.9,4.6-4,6.1c-2.1,4.2-4.9,8-8.3,11.5c-3.5,3.5-6.2,5.9-8.3,7.4c-4.2,2.4-8.9,4.7-14.2,7
			c-5.3,2.2-10.4,3.7-15.5,4.3c-0.3,0.3-0.6,0.4-0.9,0.4c-0.3,0.3-0.9,0.5-1.8,0.5c-3.3,0.6-6.8,1.4-10.4,2.2
			c-3.6,0.9-7.6,0.6-12.1-0.9c-4.8,0.3-9.6,0.1-14.4-0.7c-4.8-0.7-9.2-1.9-13.1-3.6c-3.9-1.6-7.1-3.8-9.7-6.5c-2.6-2.7-4-5.7-4.3-9
			l-2.2-4.5l-4.1-8.1c-2.1-3.3-2.4-9.1-0.9-17.5c0.6-5.7,1.5-11.5,2.7-17.5c1.2-6,2.7-10.6,4.5-14c2.1-3,3.7-6.2,4.9-9.7
			c1.2-3.4,2.5-6.4,4.1-8.8c1.8-2.4,3.6-5,5.4-7.9C124.5,216.5,126,212.8,127.2,208.3z M142.1,242c-2.4,1.8-4.4,3.6-6.1,5.4
			c-1.7,1.8-2.5,3.3-2.5,4.5c0,3.9,1.3,7.4,3.8,10.6c2.5,3.1,5,5.9,7.4,8.3c3.3,1.8,7,3.7,11.2,5.6c4.2,2,8.8,2.6,14,2
			c5.7,0.6,11.2,0.8,16.6,0.5c5.4-0.3,10.2-2.1,14.4-5.4c3.3-1.5,6.3-3.4,9-5.6s4.6-4.6,5.8-7c-0.6-0.6-1.6-2.3-2.9-5.2
			c-1.3-2.8-3.2-6.2-5.6-10.1c-3.3-4.2-6.7-7.9-10.1-11.2c-3.5-3.3-6.4-5.2-8.8-5.9c-1.8-1.5-5-2-9.7-1.6c-4.7,0.4-8.9,1-12.8,1.6
			c-3.3-0.6-6.5-0.5-9.5,0.2c-3,0.8-5.3,1.4-6.8,2c-1.2,1.8-2.4,3.8-3.6,6.1C144.9,239.1,143.6,240.9,142.1,242z M278.4,232.2
			c-0.9,0.6-2,1.3-3.2,2.2c-1.2,0.9-2.3,1.8-3.4,2.7c-1.1,0.9-2,1.7-2.9,2.2c-0.9,0.6-1.5,0.8-1.8,0.4l-0.9,3.6
			c-0.6,1.2,0.6,3.5,3.6,7c3,3.5,5.5,6.1,7.7,7.9c1.2,1.5,1.7,3.2,1.6,5c-0.2,1.8,1,2.7,3.4,2.7c3.3,3.3,6.1,5.4,8.3,6.3
			s4,2.6,5.2,5c2.4,0,5.1,0.2,8.1,0.7c3,0.5,6.1,0.7,9.5,0.7c5.1,1.8,10,2,14.6,0.5c4.6-1.5,8.2-2.5,10.6-3.2c3.3,0,5-0.3,5.2-0.9
			c0.1-0.6,1-1.5,2.5-2.7c0.6-0.3,1.8-1,3.6-2.2c0.9-0.6,1.6-1,2.2-1.3c1.5-0.6,2.6-1.4,3.4-2.2c0.7-0.9,1.7-3.6,2.9-8.1v-14.8
			c1.5-3.9,1.6-7.3,0.5-10.1c-1.2-2.8-3-4.9-5.4-6.1c-4.5,0.3-7.6,0.2-9.5-0.5c-1.8-0.6-3.1-1.3-3.8-2.2c-0.8-0.9-1.5-1.7-2.2-2.5
			c-0.8-0.7-2.2-1.1-4.3-1.1c-2.1,0-4.4-0.4-7-1.1c-2.6-0.7-4.9-0.8-7-0.2c-2.4-1.2-4.3-1.9-5.6-2c-1.3-0.1-2.3-0.2-2.9-0.2
			c-3.3,1.8-5.8,2.9-7.4,3.2c-1.7,0.3-3.4,0.5-5.2,0.5L278.4,232.2z"/>
	</g>
</g>
<g id="Layer_2">
</g>
<g id="Layer_3">
</g>
</svg>
