<svg version="1.1" id="Layer_1" x="0" y="0" viewBox="0 0 500 500" style="enable-background:new 0 0 500 500" xml:space="preserve" xmlns="http://www.w3.org/2000/svg"><style type="text/css" id="style1"></style><path id="rect1" style="fill:#a2cd3a" d="M0 2.8h500v496.5H0z"/><path id="rect2" style="fill:#fff200" d="M-34.3-31.3h568.7v564.7H-34.3z"/><path id="rect3" style="fill:#fff" d="M51.6 50.6h396.7v396.7H51.6z"/><g id="g7" transform="translate(0 9.083)"><path d="M355.7 229.1c-.6-8.9-.8-20.8-2.2-32.6-3.5-29.3-10.5-57.3-26-83-7.5-12.4-18.8-21-28.7-30.8-6-5.9-16.6-2.8-25.1-4-26.4-3.7-52.9-.9-79.3 1-3.4.2-7.5.8-7.5 4.4.2 11.4-7.9 19.1-12 28.5-18.2 42.3-26.8 86.3-24.4 132.3 1.2 22.8 2.6 45.6 5.5 68.4 2.9 22.8 8.2 44.9 17.7 65.9 5.6 12.4 15.1 18.8 28.4 19.5 21.9 1.2 43.7 3.4 65.5 6.1 4.6.6 8.6-.7 13-2.4 22.8-8.8 37.2-25.9 48-46.7 19.9-38.8 26-80.6 27.1-126.6zm-143-138.3c12.2-.6 24.4-2.9 38.5-1.6-6.8 7.2-12.8 13.6-18.9 19.8-.8.8-2.4 1.3-3.6 1.3-12.1.1-24.2.1-36.6.1 4.4-16.3 7.2-19 20.6-19.6zm-31.2 36.8c1.1-3.4 3.8-4.7 7.5-4.7 10.9.1 21.7 0 33.3 0-1.3 7-5.9 13.3-8.6 20.2-.9 2.4-2.9 3.5-5.3 3.6-10.7.2-21.5 2.7-32.7 1.1-.2-8 3.7-13.8 5.8-20.2zm-15.9 59.7c.1-.5.3-.9.3-1.3 4.2-26.2 8.1-28.7 40.1-25-5 29.3-5.3 29.5-34.6 32.1-4.4.4-7.2-.3-5.8-5.8zm-2.9 22.9c.1-1 1.7-2.5 2.7-2.6 10.3-.7 19.7-6.8 31.2-4.6 1 9.6-2.6 18.9-2.4 28.3 0 2.6-2 4-4.4 4.3-3.2.4-6.4.9-9.5.8-5.7-.1-13.7 4.2-16.7-.8-4.4-7.4-1.3-16.9-.9-25.4zm1.5 61c.2-6.7-4.1-15.3 1.3-19.6 5.7-4.6 14.8-3.2 22.5-3.6 4-.2 5.9 1.6 5.8 5.6v1.4c1.4 15.2-5.6 23.9-21 26.2-2.2.3-4.4 1-7.9 1.8-.3-4.6-.9-8.2-.7-11.8zm3.9 41c-.7-5-.8-9.9-1.3-15.4 7.4-1.7 13.8-4.9 21.3-5.1 5.6-.1 8.4 1.1 9.2 7 1.2 8.6 3.2 17.1 5.2 25.5 1.2 5.3-.8 7.5-5.9 8.4-22.8 4.4-25.2 2.8-28.5-20.4zm26.4 71c-4.1-1-6.2-3-8-6.3-4.7-8.8-8.6-18-10.8-28.8 9.2-3.2 18.5-3.6 27.9-3.9 3.7-.1 5.8 1.7 7.2 5 5.5 13.5 12.9 25.9 24.7 39.1-15.9-2-28.6-2-41-5.1zm99.1-2.7c-16.6 13.9-33.2 13.3-49.3-1.3-11.2-10.2-17.7-23.2-23-36.9-11.8-30.3-15.8-62.1-15.1-94.3.7-32.7 5.7-64.7 17.5-95.4 5.1-13.3 11.6-25.9 20.5-37.1 3.7-4.7 7.7-9 12.5-12.7 16.8-12.8 32.8-12.3 48.2 2.1 13.9 12.9 21 29.8 26.6 47.3 8.2 25.5 11.5 51.7 11.5 86.9-.4 32.7-6.7 72.7-25.3 109.9-6 12-13.7 22.8-24.1 31.5z" id="path3"/><path d="M295 181.8c-5 .4-5.9 4.2-5.5 7.9.4 5 1.8 9.9 2.7 14.8 2.6 14.3 8.8 28 7.2 45.8 0 .6.3 3.8-.1 6.9-.8 6 1 14.6-7.6 15.4-8.6.8-8.8-8-10.6-13.8-5.4-17.2-6.7-35-6.7-52.9 0-4.4.9-10.2-5.8-10.4-6.4-.1-6.4 5.2-6.6 9.9-.7 19.8 1 39.3 7 58.4 1.2 3.9 2.8 7.8 4.7 11.4 4.2 7.8 11.6 10.5 19.7 10.2 8.1-.2 13.3-5.9 16-13.2 2-5.1 2.5-10.6 3.1-16.1 2.8-24-7.1-45.9-10.8-68.8-.7-3.5-2.7-5.8-6.7-5.5z" id="path4"/><path d="M273.2 301.7c-7.8.5-16.2.1-24.1 2.3-8 2.3-13.8 6.6-15.9 15.1-2.2 9 .3 15.9 7.5 21.7 10 8.1 21.1 12.5 31.1 12.2 14.7.8 21.6-2 25.5-9 8-14.3-7.5-43.3-24.1-42.3zm13.9 33.4c-1.6 5.4-3.6 6.5-14.2 6.3-7.5-.3-16.5-3-24.2-9.6-3-2.6-5-5.2-3.4-9.5 1.5-3.8 4.1-5.7 8.1-6.3 9.4-1.4 18.3 1 26.8 4.2 6.2 2.4 8.5 9 6.9 14.9z" id="path5"/><path d="M294.6 121c-8.1-.2-15 8.9-15.6 20.6-.8 15.6 6.7 26.1 19 26.7 12.9.6 22.4-10 22.4-25.3 0-14.4-7-18.7-25.8-22zm13.1 24c-.7 6.8-5 11.6-9.7 10.9-4.2-.6-7.9-7.6-6.8-13.4.9-4.5 2.2-9 8.7-7.8 6.5 1.3 8.4 3.6 7.8 10.3z" id="path6"/><path d="M265 172.9c5.6-6.1 7-13.7 6.7-21.5-.3-9.2-9.6-16.4-20.1-16.3-10.4.1-16.4 6.5-16.4 17.4 0 8.1 3 15.1 8.6 20.8 6.9 7.3 14.4 7 21.2-.4zm-14-25.5c3.4-.5 7.3.5 8.8 4.7 1.3 3.8-2.4 12.1-6.1 12.9-4.5-.9-5.3-5.2-6.2-8.9-1-3.5-1.3-7.9 3.5-8.7z" id="path7"/></g></svg>