<?xml version="1.0" encoding="utf-8"?>
<!-- Generator: Adobe Illustrator 22.0.1, SVG Export Plug-In . SVG Version: 6.00 Build 0)  -->
<svg version="1.1" xmlns="http://www.w3.org/2000/svg" xmlns:xlink="http://www.w3.org/1999/xlink" x="0px" y="0px"
	 viewBox="0 0 500 500" style="enable-background:new 0 0 500 500;" xml:space="preserve">
<style type="text/css">
	.st0{fill:#231F20;}
	.st1{fill:#FFFFFF;}
	.st2{fill:#231F20;stroke:#FFFFFF;stroke-width:8;stroke-miterlimit:10;}
	.st3{fill:url(#SVGID_1_);}
	.st4{fill:url(#SVGID_2_);}
	.st5{fill:#E48F2E;}
</style>
<g id="Layer_1">
	<rect x="-41.3" y="-39.2" class="st0" width="582.6" height="578.5"/>
	<rect x="21.7" y="23.3" class="st1" width="456.6" height="453.4"/>
	<g>
		<path class="st0" d="M196.3,167c2.7-4,6.9-7.9,12.8-11.8c5.9-3.9,12.4-7.5,19.6-10.8c7.2-3.3,14.7-6.2,22.6-8.6
			c7.9-2.4,15.1-3.9,21.8-4.4c1.3-0.5,2.7-0.7,4.2-0.4c1.5,0.3,3.1,0.4,5,0.4c0.3,0,0.7,0.1,1.2,0.4c0.5,0.3,1.1,0.5,1.6,0.8
			c0.8,0.5,1.6,0.9,2.4,1.2c1.6,0,2.4-0.4,2.4-1.2c1.6-0.5,3.3-0.9,5.2-1c1.9-0.1,3.1-0.2,3.6-0.2c10.1,2.9,17.7,7.5,22.8,13.8
			c5.1,6.3,8.3,12.7,9.6,19.4c1.1,3.5,1.5,6.5,1.4,9.2c-0.1,2.7-0.2,4.8-0.2,6.4c-0.8,5.6-2.5,11.1-5,16.6
			c-2.5,5.5-5.5,10.7-8.8,15.8c-3.3,5.1-6.9,9.9-10.8,14.4c-3.9,4.5-7.5,8.7-11,12.4c-2.1,2.9-5.3,5.2-9.4,6.8
			c-4.1,1.6-8.1,2.7-11.8,3.2c-1.3,0.5-2.7,0.8-4,0.8c-1.3,0-2.3,0-2.8,0l-1.2,3.6c-0.3,0.3-0.4,0.5-0.4,0.8c0,0.5,0.1,0.9,0.4,1.2
			c1.9,0.5,3.6,0.9,5.2,1.2c1.6,0.3,3.2,0.7,4.8,1.2c6.1,1.1,11.9,2.5,17.2,4.4c5.3,1.9,9.6,5.6,12.8,11.2
			c2.9,6.1,5.4,12.3,7.4,18.6c2,6.3,3,11.9,3,17c-1.9,8.3-5.1,17.6-9.6,28c-4.5,10.4-9.9,19.2-16,26.4c-5.1,5.6-11.3,10.3-18.8,14.2
			c-7.5,3.9-14.3,7.3-20.4,10.2c-1.1,0-2.5,0.5-4.2,1.6c-1.7,1.1-3.3,1.6-4.6,1.6c-5.1,2.9-10.5,5-16.4,6.2
			c-5.9,1.2-11.9,1.8-18,1.8h-14.4c-1.9-0.5-3.7-0.9-5.6-1c-1.9-0.1-3.3-0.2-4.4-0.2c-6.9-0.5-12.4-1.5-16.4-2.8
			c-4-1.3-7.5-2.7-10.4-4l-1.2-1.2c-0.5-0.3-0.9-0.5-1.2-0.8c-1.6-1.1-3.3-2.4-5.2-4c-1.9-1.6-3.6-3.3-5.2-5.2
			c-1.6-1.9-2.9-3.8-4-5.8c-1.1-2-1.5-4.1-1.2-6.2c0.5,0,1.4-0.6,2.6-1.8c1.2-1.2,2.6-2.5,4.2-3.8c0.5,0,1.1-0.2,1.6-0.6
			c0.5-0.4,0.8-1.7,0.8-3.8c2.9-3.2,5.9-6.4,8.8-9.6c2.9-3.2,5.6-5.7,8-7.4c2.4-1.7,4.7-2.4,6.8-2c2.1,0.4,3.9,2.3,5.2,5.8
			c1.1,2.4,2.7,5.5,5,9.4c2.3,3.9,5,7.5,8.2,11c3.2,3.5,6.9,6.5,11.2,9c4.3,2.5,9.1,3.8,14.4,3.8c1.1,0,2.7-0.1,5-0.4
			c2.3-0.3,4.7-0.7,7.2-1.2c2.5-0.5,5-1.3,7.4-2.4c2.4-1.1,4.4-2.3,6-3.6c5.1-4,9.7-8.6,14-13.8c4.3-5.2,7.1-11.4,8.4-18.6
			c1.1-6.1,1.7-12.4,1.8-18.8c0.1-6.4-0.3-12.4-1.4-18c-1.1-5.6-2.9-10.5-5.6-14.8c-2.7-4.3-6.1-7.5-10.4-9.6
			c-0.3-0.3-1.1-0.5-2.4-0.6c-1.3-0.1-2.8-0.3-4.4-0.4c-1.6-0.1-3.1-0.3-4.6-0.4c-1.5-0.1-2.5-0.3-3-0.6c-2.9-1.3-5.7-2.3-8.2-3
			c-2.5-0.7-4.6-1.5-6.2-2.6c-1.9-0.5-3.7-0.8-5.6-0.8c-1.9,0-3.1,0.3-3.6,0.8c-3.2,1.1-5.9,1.4-8,1c-2.1-0.4-4.3-2.2-6.4-5.4
			c0-4,0.4-8.2,1.2-12.6c0.8-4.4,2.7-6.9,5.6-7.4c1.6-1.3,4.2-2.1,7.8-2.4c3.6-0.3,7.7-0.7,12.2-1.2c3.2-0.3,7.1-0.7,11.6-1.2
			c4.5-0.5,9.3-1.6,14.4-3.2c5.1-1.6,10.3-3.9,15.6-7c5.3-3.1,10.4-7.4,15.2-13c1.1-2.9,2.2-6.1,3.4-9.4c1.2-3.3,1.5-6.9,1-10.6
			c0.3-2.1,0.1-5.1-0.4-9c-0.5-3.9-1.4-7.7-2.6-11.4c-1.2-3.7-2.7-6.9-4.4-9.4c-1.7-2.5-3.7-3.7-5.8-3.4c-1.9,0-3.9-0.1-6-0.2
			c-2.1-0.1-4.3-0.5-6.4-1l-5.6,3.2c-0.5,0-2,0.5-4.4,1.6c-2.4,1.1-5.1,2.4-8,4c-0.5,0.3-1.1,0.7-1.6,1.2c-0.5,0.5-1.1,1-1.6,1.4
			c-0.5,0.4-0.9,1-1.2,1.8c-2.1,2.9-5.5,6.5-10,10.6c-4.5,4.1-9.3,7.7-14.4,10.6c-2.4,1.3-4.9,2-7.6,2c-2.7,0-5-0.7-7-2
			c-2-1.3-3.3-3.4-4-6.2c-0.7-2.8-0.3-6.3,1-10.6c0-0.5-0.1-1.6-0.2-3.2c-0.1-1.6-0.5-2.7-1-3.2c0.5-1.3,0.9-2.4,1-3.2
			C195.4,169.8,195.8,168.6,196.3,167z"/>
	</g>
</g>
<g id="Layer_2">
</g>
<g id="Layer_3">
</g>
</svg>
