<?xml version="1.0" encoding="utf-8"?>
<!-- Generator: Adobe Illustrator 22.0.1, SVG Export Plug-In . SVG Version: 6.00 Build 0)  -->
<svg version="1.1" xmlns="http://www.w3.org/2000/svg" xmlns:xlink="http://www.w3.org/1999/xlink" x="0px" y="0px"
	 viewBox="0 0 3500 500" style="enable-background:new 0 0 3500 500;" xml:space="preserve">
<style type="text/css">
	.st0{fill:#231F20;stroke:#FFFFFF;stroke-width:8;stroke-miterlimit:10;}
	.st1{stroke:#FFFFFF;stroke-width:8;stroke-miterlimit:10;}
	.st2{fill:#FFFFFF;}
	.st3{fill:#FFFFFF;stroke:#231F20;stroke-width:8;stroke-miterlimit:10;}
	.st4{stroke:#FFFFFF;stroke-width:8.0055;stroke-miterlimit:10;}
	.st5{fill:#0AFFCD;}
	.st6{fill:#231F20;}
	.st7{fill:#FFFFFF;stroke:#FFFFFF;stroke-width:8;stroke-miterlimit:10;}
	.st8{fill:#BBBDBF;stroke:#FFFFFF;stroke-width:8;stroke-miterlimit:10;}
	.st9{fill:#BBBDBF;}
	.st10{fill:#0AFFCD;stroke:#FFFFFF;stroke-width:8;stroke-miterlimit:10;}
</style>
<g id="Layer_1">
	<rect x="0.1" y="0" class="st4" width="3499.9" height="500"/>
	<path class="st5" d="M487.8,225.4c-10.7-29.6-21.4-53-32.2-70.2c-10.8-17.2-24.1-27.9-39.8-32.2v117.2l37.6-52l2.8,0.4L465,315
		l-2.8,0.4l-44.4-65.2l-2,0.8v104c0,17.6,5.5,31.3,16.4,41.2h-84.8c10.9-9.9,16.4-23.6,16.4-41.2V157.4c0-17.6-5.5-31.3-16.4-41.2
		h140.4L491,225L487.8,225.4z"/>
	<path class="st5" d="M665.8,180.2v54.4l-69.2-24c0.3,10.9,2.4,19.8,6.4,26.6s10.8,13.3,20.4,19.4c-10.1,23.7-17.3,49.2-21.6,76.4
		c-4.3,27.2-6.4,58.4-6.4,93.6h-4.8c0-35.2-2.1-66.4-6.4-93.6c-4.3-27.2-11.5-52.7-21.6-76.4c9.6-6.1,16.4-12.6,20.4-19.4
		s6.1-15.7,6.4-26.6l-69.2,24v-54.4l2-0.4c25.6,15.2,48,23.2,67.2,24c-0.8-13.3-3.4-27.4-7.8-42.2c-4.4-14.8-10.5-29-18.2-42.6
		l0.4-2.8h58.4l0.4,2.8c-7.7,13.6-13.8,27.8-18.2,42.6c-4.4,14.8-7,28.9-7.8,42.2c19.2-0.8,41.6-8.8,67.2-24L665.8,180.2z"/>
	<path class="st5" d="M774.6,233.8c8-1.9,16.5-5.4,25.4-10.6c8.9-5.2,19.1-12.1,30.6-20.6L853,416.2l-3.6,0.4l-45.2-107.2
		c-7.7-18.1-14.2-32.1-19.4-41.8c-5.2-9.7-11-17.8-17.4-24.2L754.2,261v94c0,17.6,5.5,31.3,16.4,41.2h-84.8
		c10.9-9.9,16.4-23.6,16.4-41.2V157.4c0-17.6-5.5-31.3-16.4-41.2h84.8c-10.9,9.9-16.4,23.6-16.4,41.2v88.8l46-61.6l-0.8,0.8
		c7.5-9.9,11.2-19.6,11.2-29.2c0-7.7-2.3-14.8-7-21.2c-4.7-6.4-11.1-11.7-19.4-16l0.4-2.8h76.8v1.6L774.6,233.8z"/>
	<path class="st5" d="M1023.8,116.2c35.5,0,60.3,13.4,74.4,40.2c14.1,26.8,21.2,62.5,21.2,107c0,40.8-7.3,73.1-21.8,97
		c-14.5,23.9-39.1,35.8-73.8,35.8h-72.4c10.9-9.9,16.4-23.6,16.4-41.2V157.4c0-17.6-5.5-31.3-16.4-41.2H1023.8z M1066.6,252.6
		c0-33.6-1.4-59.5-4.2-77.8c-2.8-18.3-7.5-31.3-14.2-39.2c-6.7-7.9-16.1-11.9-28.4-12.2v265.2c13.9,0,24.2-4.6,31-13.8
		c6.8-9.2,11.1-21.7,13-37.4c1.9-15.7,2.8-36.9,2.8-63.6V252.6z"/>
	<path class="st5" d="M1279.8,227.8c-9.1-28.5-19.7-52-31.8-70.4c-12.1-18.4-26.9-29.7-44.2-34v114l37.6-52l2.8,0.4l8.8,126.4
		l-2.8,0.4l-44.4-65.2l-2,0.8v140.4c15.2-2.9,28.9-13.3,41-31c12.1-17.7,22.5-39.5,31-65.4l3.2,0.4l-4.4,103.6h-139.2
		c10.9-9.9,16.4-23.6,16.4-41.2V157.4c0-17.6-5.5-31.3-16.4-41.2h144.4l3.2,111.2L1279.8,227.8z"/>
	<path class="st5" d="M1376.2,116.2c35.5,0,60.3,13.4,74.4,40.2c14.1,26.8,21.2,62.5,21.2,107c0,40.8-7.3,73.1-21.8,97
		c-14.5,23.9-39.1,35.8-73.8,35.8h-72.4c10.9-9.9,16.4-23.6,16.4-41.2V157.4c0-17.6-5.5-31.3-16.4-41.2H1376.2z M1419,252.6
		c0-33.6-1.4-59.5-4.2-77.8c-2.8-18.3-7.5-31.3-14.2-39.2c-6.7-7.9-16.1-11.9-28.4-12.2v265.2c13.9,0,24.2-4.6,31-13.8
		c6.8-9.2,11.1-21.7,13-37.4c1.9-15.7,2.8-36.9,2.8-63.6V252.6z"/>
	<path class="st5" d="M1632.2,227.8c-9.1-28.5-19.7-52-31.8-70.4c-12.1-18.4-26.9-29.7-44.2-34v114l37.6-52l2.8,0.4l8.8,126.4
		l-2.8,0.4l-44.4-65.2l-2,0.8v140.4c15.2-2.9,28.9-13.3,41-31c12.1-17.7,22.5-39.5,31-65.4l3.2,0.4l-4.4,103.6h-139.2
		c10.9-9.9,16.4-23.6,16.4-41.2V157.4c0-17.6-5.5-31.3-16.4-41.2h144.4l3.2,111.2L1632.2,227.8z"/>
	<path class="st5" d="M1754.2,238.6l54,157.6H1737c5.3-5.3,8-11.1,8-17.2c0-2.7-0.7-6.3-2-10.8l-34-98.8l-13.2,37.2
		c-4,11.2-6,21.9-6,32c0,11.5,2.3,21.9,7,31.4c4.7,9.5,11.3,17.3,19.8,23.4l-0.4,2.8h-62l50.4-140l-48-140h71.2
		c-5.3,5.3-8,11.1-8,17.2c0,2.7,0.7,6.3,2,10.8l28,81.6l7.6-18.8c4.8-12.5,7.2-24.7,7.2-36.4c0-11.2-2-21.4-6-30.6
		s-9.6-16.2-16.8-21l0.4-2.8h62L1754.2,238.6z"/>
	<path class="st5" d="M1904.6,396.2l21.2-290h3.2l92.4,174.4l72.4-174.4h4l21.2,290h-69.6c9.9-8,14.4-18.5,13.6-31.6l-8.8-140
		l-52,125.2h-3.2l-72.4-137.2l-3.2,44.4c-0.5,8-0.8,13.9-0.8,17.6c0,25.3,4.8,47.1,14.4,65.2c9.6,18.1,25.3,35.9,47.2,53.2l-0.4,3.2
		H1904.6z"/>
	<path class="st5" d="M2236.2,396.2c5.3-5.9,8-12.3,8-19.2c0-4-0.5-7.7-1.6-11.2l-18.4-67.2h-53.6c-1.6,5.9-2.4,11.9-2.4,18
		c0,14.9,4.1,29.5,12.4,43.8c8.3,14.3,18.3,25.1,30,32.6l-0.4,3.2H2133l84.4-294h4l86,294H2236.2z M2197.4,202.2l-24,86.8h48
		L2197.4,202.2z"/>
	<path class="st5" d="M2329.8,178.2c7.2-21.3,17.6-37.7,31.2-49.2c13.6-11.5,29.6-17.2,48-17.2c11.7,0,25.6,3.2,41.6,9.6
		c2.4,1.1,5.1,1.6,8,1.6c5.3,0,10.4-1.7,15.2-5.2l-7.6,108.8l-2.8-0.4c-8.8-28.3-19.6-52.1-32.4-71.6c-12.8-19.5-28-29.2-45.6-29.2
		c-8.8,0-15.2,4.7-19.2,14c-4,9.3-6,21.7-6,37.2c0,31.7,2.8,61.2,8.4,88.4c5.6,27.2,13.9,49.1,25,65.8c11.1,16.7,24.3,25,39.8,25
		c11.7,0,21.2-6.5,28.4-19.6c7.2-13.1,12.3-33.3,15.2-60.8l4.4,0.4c-2.7,42.7-9.7,74.1-21,94.2c-11.3,20.1-29.1,30.2-53.4,30.2
		c-16.5,0-31.5-6.6-45-19.8c-13.5-13.2-24-31-31.6-53.4c-7.6-22.4-11.4-47.1-11.4-74C2319,224.5,2322.6,199.6,2329.8,178.2z"/>
	<path class="st5" d="M2674.8,355c0,17.6,5.5,31.3,16.4,41.2h-84.8c10.9-9.9,16.4-23.6,16.4-41.2V251.8h-52V355
		c0,17.6,5.5,31.3,16.4,41.2h-84.8c10.9-9.9,16.4-23.6,16.4-41.2V157.4c0-17.6-5.5-31.3-16.4-41.2h84.8
		c-10.9,9.9-16.4,23.6-16.4,41.2v84.8h52v-84.8c0-17.6-5.5-31.3-16.4-41.2h84.8c-10.9,9.9-16.4,23.6-16.4,41.2V355z"/>
	<path class="st5" d="M2779.6,355c0,17.6,5.5,31.3,16.4,41.2h-84.8c10.9-9.9,16.4-23.6,16.4-41.2V157.4c0-17.6-5.5-31.3-16.4-41.2
		h84.8c-10.9,9.9-16.4,23.6-16.4,41.2V355z"/>
	<path class="st5" d="M2824,106.2h3.2L2954,299v-30.8c0-19.2-2.9-38.5-8.6-58c-5.7-19.5-14.1-37.3-25-53.4
		c-10.9-16.1-23.6-28.6-38-37.4l0.4-3.2h79.2v290h-3.2L2832,217v28.8c0,29.1,6,56.1,18,81.2c12,25.1,29.9,47.1,53.6,66l-0.4,3.2
		H2824V106.2z"/>
	<path class="st5" d="M3135.4,227.8c-9.1-28.5-19.7-52-31.8-70.4c-12.1-18.4-26.9-29.7-44.2-34v114l37.6-52l2.8,0.4l8.8,126.4
		l-2.8,0.4l-44.4-65.2l-2,0.8v140.4c15.2-2.9,28.9-13.3,41-31c12.1-17.7,22.5-39.5,31-65.4l3.2,0.4l-4.4,103.6H2991
		c10.9-9.9,16.4-23.6,16.4-41.2V157.4c0-17.6-5.5-31.3-16.4-41.2h144.4l3.2,111.2L3135.4,227.8z"/>
</g>
<g id="Layer_2">
</g>
</svg>
