<svg id="Layer_1" data-name="Layer 1" xmlns="http://www.w3.org/2000/svg" viewBox="0 0 3500 500"><title>FIK_dedex_header_3500X500px_NEW</title><path d="M715.69,398.61l-10.61-2.89a8.23,8.23,0,0,1-3.86-1.45,23.84,23.84,0,0,1-4.57-3.61,20.81,20.81,0,0,1-3.61-4.82,9.85,9.85,0,0,1-1.45-4.58q0-10.12,2.65-12.28a6.44,6.44,0,0,0,2.65-5.06v-13.5c0-2.24.72-6.27,2.17-12.05a77.08,77.08,0,0,0,2.16-18.79l-4.33-24.1a34.16,34.16,0,0,0-.73-5.3c-.47-2.57-1.12-5.3-1.92-8.19s-1.45-5.62-1.93-8.2a34.65,34.65,0,0,1-.72-5.29l5.3-22.65a15.2,15.2,0,0,0-1-4.35L694,235.72a46.09,46.09,0,0,1-2.41-7.23V194.76c0-1.93,1.92-3.53,5.78-4.82a109.22,109.22,0,0,1,13-3.37q7.23-1.44,13-2.9t5.78-3.37a16.6,16.6,0,0,0-1.69-7,36.34,36.34,0,0,0-3.86-6.5,26.49,26.49,0,0,0-4.57-4.82c-1.61-1.28-2.74-1.93-3.37-1.93a45.47,45.47,0,0,1-5.55-.48q-3.61-.48-7.47-1.21c-2.57-.47-5-1-7.22-1.44a27.12,27.12,0,0,0-4.82-.73l-1.94,1.93a9.3,9.3,0,0,1-4.81,1.93h-5.31q-5.3,1-10.12,1.93a59,59,0,0,1-8.18,1.44,65.9,65.9,0,0,1-7.23.49q-2.89-1-5.3-1.93a26.93,26.93,0,0,0-5.06-1.44,26.64,26.64,0,0,0-4.59-.49h-26.5a2.69,2.69,0,0,0-2.65,1.45,20.32,20.32,0,0,0-1.2,2.89,15.46,15.46,0,0,0-.49,3.85q0,9.17,1.93,13.5A14.18,14.18,0,0,0,614,188a20,20,0,0,0,6.27,1.92c2.24.32,4.41.57,6.5.73a35.62,35.62,0,0,1,6,1,11.42,11.42,0,0,1,5.29,3.13,27.23,27.23,0,0,1,3.86,8.91,62.58,62.58,0,0,1,1.44,15.18,23.51,23.51,0,0,1-1,5.55c-.65,2.41-1.28,4.9-1.92,7.47A93.63,93.63,0,0,0,638.09,242l5.3,13V370.18a14.84,14.84,0,0,1-1.92,7q-1.94,3.61,1.92,10.85,1.46,7.23-3.12,12.05A57.44,57.44,0,0,1,629.18,409q-6.51,4.11-12,8.19t-5.54,9.4c0,2.25,1.68,4.41,5.06,6.51s6,3.13,8,3.13a29.08,29.08,0,0,0,6.26-1.45q4.82-1.44,10.61-3.37c3.86-1.28,7.54-2.41,11.08-3.37a33.47,33.47,0,0,1,8.19-1.45l17.83,5.3h26.51a38.64,38.64,0,0,0,16.14-3.61q8-3.62,8-9.4Q729.18,404.89,715.69,398.61Z"/><path d="M933.51,348.25q-3.37-3.13-6.27-3.13c-1.28,0-4.26,1.53-8.91,4.58s-9.72,6.34-15.18,9.87q-3.37,2.42-6.27,4.35c-1.92,1.28-3.7,2.57-5.3,3.85l-5.78,3.85c-2.57,0-4.27-.48-5.06-1.44a5.44,5.44,0,0,1-1.21-3.62,26.5,26.5,0,0,1,.49-4.82,27.13,27.13,0,0,0,.48-4.58q0-.46,2.17-8.67T888,328q3.12-12.28,6.74-27t6.75-28.91q3.13-14.21,4.58-26.26a105.56,105.56,0,0,0,1-18.8,114.11,114.11,0,0,0-4.33-14.46q-2.42-5.29-5.06-10.12t-6.51-4.82q-2.9,0-9.16,5.55t-14,13.73q-7.72,8.2-15.91,17.59T836.4,252.11q-7.47,8.2-13,13.73t-7.47,5.54l-5.3-9.64L809.17,254a39.76,39.76,0,0,1,1.21-7.22c.79-3.53,1.61-7.23,2.41-11.09a100,100,0,0,0,1.69-11.56c.31-3.86,0-6.91-1-9.16a60,60,0,0,0-5.3-7.23q-2.9-3.37-8.19-3.37a24.77,24.77,0,0,0-11.09,2.89c-3.85,1.93-6.91,3.54-9.15,4.82A127.44,127.44,0,0,0,752.55,235a358.41,358.41,0,0,0-23.37,29.64,32,32,0,0,1-1.69,8.43q-1.69,5.55,1.69,7.47H733a12.87,12.87,0,0,0,5.06-1.45l6.75-3.12q3.61-1.7,7.23-3.14a17.86,17.86,0,0,1,6.5-1.45q3.85,0,4.58,3.14a26.91,26.91,0,0,1,.72,6l1.45,18.79v6.76c0,1.28-.65,3.21-1.93,5.77s-2.65,5.39-4.09,8.44-2.82,6.11-4.1,9.15a20.38,20.38,0,0,0-1.93,7.47l2.41,8.2v17.35c0,1.28-1.13,3.85-3.37,7.71s-4.58,8.36-7,13.49a144,144,0,0,0-6.51,16.63,39.93,39.93,0,0,0-1.92,17.1,10.66,10.66,0,0,0,4.57,8.2,30.19,30.19,0,0,0,9.16,4.33A44.58,44.58,0,0,0,761,431.62c3.53.16,6.27.24,8.19.24a26.93,26.93,0,0,0,6-.72q3.12-.72.72-4.58,3.86-13,8.68-28.19t10.12-30.6a83.23,83.23,0,0,0,3.13-11.09q1.18-5.78,2.17-11.56a12.84,12.84,0,0,1-.24-6.51,15.06,15.06,0,0,1,3.13-5.54,171.88,171.88,0,0,0,7-17.35,109.94,109.94,0,0,1,7.47-17.1,39.68,39.68,0,0,1,11.08-13q6.75-5.06,18.31-5.06,7.71,0,9.64,13.49v5.3A151.52,151.52,0,0,1,853,318.62q-2.43,10.11-6.27,21.2-3.85,13-8.43,27.95t-7.47,28l1.45,17.35a18.8,18.8,0,0,0,1.68,7,31.21,31.21,0,0,0,4.58,7.72,28.86,28.86,0,0,0,6.51,6,12.59,12.59,0,0,0,7,2.41q9.65,0,15.91-3.86A46.3,46.3,0,0,0,879.53,422q5.29-6.5,10.61-14.21a134.61,134.61,0,0,1,13-15.91c1.93,0,3.77-1.12,5.54-3.37a11.51,11.51,0,0,0,2.65-7.23q1.92,0,6.27-3.85a119.65,119.65,0,0,0,16.14-17.84c2.08-2.89,3.13-4.65,3.13-5.3C936.88,352.35,935.75,350.34,933.51,348.25Z"/><path d="M981,472.58a44.77,44.77,0,0,0,1.69-8.43,17.86,17.86,0,0,1,.72-5.54c.48-1.45,1.12-3.13,1.93-5.06a34.55,34.55,0,0,0,1.93-7.47,87.17,87.17,0,0,0,.72-12.77,57.66,57.66,0,0,1,.48-6c.31-2.72.72-5.54,1.21-8.43s1-5.61,1.44-8.19a34.89,34.89,0,0,0,.72-5.3l1.45-23.14a93.1,93.1,0,0,1,1.2-11.56q1.2-8.19,2.9-17.11t2.89-16.38a83.68,83.68,0,0,0,1.2-9.4,184.49,184.49,0,0,1,1.93-21,243.83,243.83,0,0,0,1.93-31.56,16.69,16.69,0,0,1,.48-3.62,29.12,29.12,0,0,1,1.45-4.57c.63-1.61,1.28-3.38,1.92-5.31q0-10.11,4.58-14.45t18.55-4.34h22.65c1.29,0,3-.88,5.07-2.65a58.78,58.78,0,0,0,6.26-6.27,51.29,51.29,0,0,0,5.3-7.22q2.17-3.62,2.17-5.06v-9.64a26.17,26.17,0,0,1-5.3-2.41c-1.62-.64-3.13-1.28-4.58-1.93a9.38,9.38,0,0,0-3.61-1h-14.94a68.53,68.53,0,0,1-7.71-.49,23.76,23.76,0,0,1-8.2-2.41,21.88,21.88,0,0,1-6.5-4.81q-2.65-2.9-2.65-8.2,4.34-21.68,8.19-40,3.36-15.4,6.75-29.88t4.82-19.75a26.88,26.88,0,0,1,8.91-11.08,51.14,51.14,0,0,1,11.33-6,80.07,80.07,0,0,1,11.56-3.38,64.21,64.21,0,0,0,9.64-2.65,15.29,15.29,0,0,1,6.27-2.41q3.36-.47,6.74-.71a29.25,29.25,0,0,0,7-1.45,18.08,18.08,0,0,0,7-4.58c1-.64,2.24-2.48,3.85-5.54s3.29-6.43,5.06-10.12a85,85,0,0,0,4.34-10.84,29.63,29.63,0,0,0,1.69-8.2A28.4,28.4,0,0,0,1120.24,22a39.83,39.83,0,0,0-8.43-11.57,36.92,36.92,0,0,0-12-7.71,21.94,21.94,0,0,0-14-.72h-8.19a21.06,21.06,0,0,0-8.92,1.69,36.67,36.67,0,0,0-6.75,4.09c-2.09,1.62-4.09,3.3-6,5.06a22.08,22.08,0,0,1-6.27,4.1,99.34,99.34,0,0,0-11.56,12.53A118,118,0,0,1,1027,42a70.61,70.61,0,0,0-8.43,7.71,94.52,94.52,0,0,0-8.67,10.6,81.29,81.29,0,0,0-7,11.81A27.17,27.17,0,0,0,1000,83.92a30.31,30.31,0,0,1-2.9,12.29,84.94,84.94,0,0,1-5.3,10.36q0,3.38-.48,10.84c-.32,5-.81,10.6-1.44,16.87s-1.45,12.94-2.41,20-1.93,13.66-2.89,19.76a138,138,0,0,1-3.38,15.9q-1.94,6.75-3.85,9.16a11.72,11.72,0,0,1-6.51,6.74,38.74,38.74,0,0,1-9.88,2.65q-5.31.72-10.6,1.93a14.73,14.73,0,0,0-8.19,4.58,10.92,10.92,0,0,0-4.58,6.5,35.84,35.84,0,0,0-.72,7q0,5.31,5.54,7.23A97.32,97.32,0,0,0,955,239.09a47.94,47.94,0,0,1,12.53,4.35,9.65,9.65,0,0,1,5.54,9.15c-.65,2.58-1.29,5.14-1.93,7.71a46.72,46.72,0,0,0-1.44,7.47,62.74,62.74,0,0,0-.49,7.47q-1.44,5.77-3.37,15.91t-3.86,22.16q-1.92,12.06-4.09,24.58T954,360.78q-1.68,10.37-2.65,17.59t-1,8.2v9.15a102.18,102.18,0,0,1-1.45,11.56q-1.44,9.17-4.09,21.45t-5.79,26q-3.13,13.74-6.5,25.3t-6.27,19.76c0,.14-.1.27-.14.4h46.71q2.32-6.51,4.28-13.41Q979.28,479.09,981,472.58Z"/><path d="M1161.93,98.37a57.62,57.62,0,0,1-5.78-12q-1.94-5.77-8.68-8.2a23.19,23.19,0,0,0-4.57.73q-3.15.72-6.51,1.44c-2.25.48-4.42,1-6.51,1.45a23.91,23.91,0,0,1-5.06.73,181.34,181.34,0,0,0-10.6,17.34q-4.34,8.21-4.34,21.2a62.89,62.89,0,0,1-1,10.13c-.65,3.85.16,6.75,2.41,8.67a29.79,29.79,0,0,0,11.81,11.81c5.3,3.06,10.19,4.57,14.69,4.57a10.23,10.23,0,0,0,8.44-1.68,24.92,24.92,0,0,0,6.26-6.75,41.59,41.59,0,0,0,4.34-8.91q1.7-4.81,2.65-8.2a24.24,24.24,0,0,1,1.93-10.35,17.14,17.14,0,0,0,1.93-7,38.66,38.66,0,0,0-.73-7.22A41.94,41.94,0,0,1,1161.93,98.37Z"/><path d="M1144.82,357.16a11.15,11.15,0,0,1-7,2.41,9.22,9.22,0,0,1-6-2.16,20.74,20.74,0,0,1-4.58-5.31,26.57,26.57,0,0,1-2.89-6.26,17.84,17.84,0,0,1-1-5.06,19.78,19.78,0,0,1,2.17-9.4,35.37,35.37,0,0,0,3.13-7.95,82.41,82.41,0,0,1,3.61-8.67,19.32,19.32,0,0,0,1.69-8.67v-5.31q1-3.86,1.93-7.22a39.77,39.77,0,0,0,1.92-11.57v-3.86a71.85,71.85,0,0,1,2.17-18.31,69.31,69.31,0,0,0,2.17-17.83,27.18,27.18,0,0,0-.48-5.3,15.11,15.11,0,0,0-3.86-8.2l4.34-13.49q0-6.75-5.3-12.77a17.21,17.21,0,0,0-13.49-6q-2.89,0-13,6.51t-21,14.94a206.28,206.28,0,0,0-19.27,16.87q-8.45,8.43-8.43,12.77V255a12.73,12.73,0,0,0,1.92,7.23,5.12,5.12,0,0,0,1.93,2.41q10.11,0,12.29-1.93a7.41,7.41,0,0,1,5.06-1.93q7.23,0,10.36,4.58t3.13,8.43a42.12,42.12,0,0,1-2.17,12.3q-2.16,7-4.58,14.21t-4.58,13.49c-1.44,4.18-2.16,7.4-2.16,9.64v4.34a27.58,27.58,0,0,1-1.93,11.09q-1.93,4.32-1.93,11.56v22.65l-3.85,13.5v9.15a3.1,3.1,0,0,1,3.37,2.89,41.74,41.74,0,0,1,.48,6.75v7.71a15.56,15.56,0,0,0,2.17,7.71,38.52,38.52,0,0,0,5.55,7.47,28.22,28.22,0,0,0,7.46,5.78,16.15,16.15,0,0,0,7.47,2.17q4.82,0,11.33-6.51a104.36,104.36,0,0,0,12.28-14.94q5.79-8.42,10.61-16.62a123.07,123.07,0,0,0,6.26-11.56c1.28-1,3.69-3,7.23-6s7.07-6.27,10.6-9.64,6.75-6.51,9.65-9.4,4.33-4.82,4.33-5.78a42.91,42.91,0,0,0-.48-6.75,3.09,3.09,0,0,0-3.38-2.89H1161a11,11,0,0,0-6,1.69,30.76,30.76,0,0,0-5.06,4.09A22.32,22.32,0,0,1,1144.82,357.16Z"/><path d="M1436.13,98.37a57.62,57.62,0,0,1-5.78-12q-1.93-5.77-8.68-8.2a23.19,23.19,0,0,0-4.57.73q-3.15.72-6.51,1.44c-2.25.48-4.42,1-6.51,1.45a23.91,23.91,0,0,1-5.06.73,179.11,179.11,0,0,0-10.59,17.34q-4.35,8.21-4.35,21.2a62.89,62.89,0,0,1-1,10.13c-.65,3.85.16,6.75,2.41,8.67a29.79,29.79,0,0,0,11.81,11.81c5.3,3.06,10.19,4.57,14.7,4.57a10.21,10.21,0,0,0,8.43-1.68,24.92,24.92,0,0,0,6.26-6.75,41.59,41.59,0,0,0,4.34-8.91c1.13-3.21,2-5.94,2.66-8.2a24.25,24.25,0,0,1,1.92-10.35,17.14,17.14,0,0,0,1.93-7,38.66,38.66,0,0,0-.73-7.22A41.94,41.94,0,0,1,1436.13,98.37Z"/><path d="M1603.11,490.17q4.1-5.78,9.4-12.53,5.29-5.29,6.26-7.47a52.59,52.59,0,0,1,3.37-6l3.86-10.6a57.19,57.19,0,0,1,1.93-5.78q1-2.41,2.17-4.82t2.89-5.3a53.33,53.33,0,0,0,3.62-8.2,52.74,52.74,0,0,1,4.81-11.08c1.61-2.57,3.13-5,4.58-7.23s2.81-4.41,4.1-6.51a44.16,44.16,0,0,0,3.85-8.91c.64-1,1.61-2.57,2.89-4.82s2.73-4.65,4.34-7.23a84.64,84.64,0,0,1,4.82-9.16q0-7.23,2.65-10.84a54.46,54.46,0,0,1,5.55-6.51,53.17,53.17,0,0,0,6-12c1.44-4.17,2.89-8.44,4.33-12.77a111.92,111.92,0,0,1,5.3-13,49.81,49.81,0,0,1,9.88-13.24,7.66,7.66,0,0,1,.49-2.41c.63-1.94,2.24-2.9,4.81-2.9q8.68,0,13.74-3.13a23.61,23.61,0,0,0,8-7.95,30.06,30.06,0,0,0,3.86-10.36,64.45,64.45,0,0,0,1-10.84v-7.72l5.78-32.29a20.38,20.38,0,0,0-4.58-13q-4.58-5.78-14.21-5.78a12.54,12.54,0,0,0-11.09,5.78q-3.86,5.79-7.71,13a27.82,27.82,0,0,0-5.3,9.64,76.75,76.75,0,0,0-2.89,11.57q-1.92,6.27-3.61,12.53a35,35,0,0,1-5.55,11.56q-5.78,5.31-9.39,9.4a98.76,98.76,0,0,0-6.51,8.19q-2.89,4.11-5.78,8.68t-6.75,9.88q-1.44,3.85-3.85,11.8t-5.31,15.91a132.72,132.72,0,0,1-6,14.21q-3.13,6.27-6,6.27c-1.29,0-2.89-.88-4.82-2.65a25.78,25.78,0,0,1-5.06-6.51,36.6,36.6,0,0,1-3.38-8.19,14.18,14.18,0,0,1-.24-7.71,43.47,43.47,0,0,0,.24-12.05,51.9,51.9,0,0,0-2.41-9.64q-1.68-4.8-3.61-10.36a88.91,88.91,0,0,1-3.37-13.73q-3.37-10.12-7.71-20.73T1591.31,242q-7.24-10.12-12.06-16.63a15.88,15.88,0,0,0-10.86-6.19,25.83,25.83,0,0,0-2.87-9q-3.13-5.79-10.36-5.78-2.42,0-6.26,2.89a28.77,28.77,0,0,0-2.9,2.41h-15.9c-1,0-2.49-.08-4.58-.24a36.36,36.36,0,0,1-6-1,11.74,11.74,0,0,1-5.06-2.65c-1.45-1.28-2.17-3.2-2.17-5.78q0-4.81,6.75-13.74t14.7-18.3q8-9.41,14.69-17.36t6.75-10.84q0-4.81-2.17-7.47a12.36,12.36,0,0,0-5.78-3.86,30.8,30.8,0,0,0-7.71-1.44c-2.74-.16-5.54-.24-8.43-.24q-2.89,0-7.72,5.54a23.86,23.86,0,0,1-11.08,7.47,17.52,17.52,0,0,0-8.67,10.61,61.25,61.25,0,0,1-5.79,13.49q-6.27,10.11-13.49,14.94a67,67,0,0,0-13.49,12,57.42,57.42,0,0,1-7,4.58q-3.13,1.7-6.51,8.92a44.72,44.72,0,0,1-5.06,7c-2.09,2.41-4.17,4.75-6.26,7a58.22,58.22,0,0,0-5.3,6.51,10.61,10.61,0,0,0-2.17,6,7.37,7.37,0,0,0,3.37,6.26c2.25,1.61,4.34,3.21,6.27,4.82,2.56,1,3.85,3.54,3.85,7.71v14.94c0,.65-.81,3.13-2.41,7.47s-3.22,9.08-4.82,14.21q-3.37,8.69-7.23,19.77v8.18a103.19,103.19,0,0,1-1.2,13.74q-1.2,8.43-2.89,16.87c-.1.47-.18.91-.27,1.37a10.78,10.78,0,0,0-4.07,1.52,30.76,30.76,0,0,0-5.06,4.09,22.32,22.32,0,0,1-5.06,5.3,11.14,11.14,0,0,1-7,2.41,9.18,9.18,0,0,1-6-2.16,20.59,20.59,0,0,1-4.59-5.31,26.13,26.13,0,0,1-2.88-6.26,17.92,17.92,0,0,1-1-5.06,19.78,19.78,0,0,1,2.17-9.4,35.37,35.37,0,0,0,3.13-7.95,84.61,84.61,0,0,1,3.61-8.67,19.32,19.32,0,0,0,1.69-8.67v-5.31q1-3.86,1.93-7.22A40.26,40.26,0,0,0,1412,282v-3.86a71.86,71.86,0,0,1,2.16-18.31,69.31,69.31,0,0,0,2.17-17.83,27.18,27.18,0,0,0-.48-5.3,15.18,15.18,0,0,0-3.85-8.2l4.33-13.49q0-6.75-5.29-12.77a17.24,17.24,0,0,0-13.5-6q-2.89,0-13,6.51t-21,14.94a206.28,206.28,0,0,0-19.27,16.87q-8.44,8.43-8.43,12.77V255a12.73,12.73,0,0,0,1.92,7.23,5.12,5.12,0,0,0,1.93,2.41q10.11,0,12.29-1.93a7.41,7.41,0,0,1,5.06-1.93q7.23,0,10.36,4.58t3.13,8.43a42.4,42.4,0,0,1-2.16,12.3q-2.17,7-4.59,14.21t-4.57,13.49c-1.45,4.18-2.17,7.4-2.17,9.64v4.34a27.58,27.58,0,0,1-1.93,11.09,24.23,24.23,0,0,0-1.76,7.63,7.48,7.48,0,0,0-4-1.37q-1.94,0-8.91,4.58t-15.18,9.87c-2.26,1.61-4.34,3.06-6.27,4.35s-3.7,2.57-5.3,3.85l-5.78,3.85q-3.87,0-5.06-1.44a5.44,5.44,0,0,1-1.21-3.62,26.5,26.5,0,0,1,.49-4.82,27.13,27.13,0,0,0,.48-4.58q0-.46,2.17-8.67t5.3-20.48q3.12-12.28,6.74-27t6.75-28.91q3.14-14.21,4.58-26.26a105.56,105.56,0,0,0,1-18.8,114.11,114.11,0,0,0-4.33-14.46q-2.41-5.29-5.06-10.12c-1.78-3.21-3.94-4.82-6.51-4.82q-2.89,0-9.16,5.55t-14,13.73q-7.72,8.2-15.91,17.59t-15.66,17.59q-7.48,8.2-13,13.73t-7.47,5.54l-5.3-9.64-1.45-7.71a39.76,39.76,0,0,1,1.21-7.22q1.18-5.3,2.41-11.09a97.88,97.88,0,0,0,1.68-11.56q.48-5.79-1-9.16a60,60,0,0,0-5.3-7.23q-2.89-3.37-8.19-3.37a24.77,24.77,0,0,0-11.09,2.89c-3.85,1.93-6.91,3.54-9.15,4.82A127.2,127.2,0,0,0,1174.7,235a360.52,360.52,0,0,0-23.38,29.64,31.93,31.93,0,0,1-1.68,8.43q-1.7,5.55,1.68,7.47h3.86a12.91,12.91,0,0,0,5.06-1.45L1167,276q3.62-1.7,7.23-3.14a17.81,17.81,0,0,1,6.5-1.45q3.85,0,4.58,3.14a26.91,26.91,0,0,1,.72,6l1.45,18.79v6.76c0,1.28-.65,3.21-1.93,5.77s-2.65,5.39-4.1,8.44-2.81,6.11-4.09,9.15a20.38,20.38,0,0,0-1.93,7.47l2.41,8.2v17.35c0,1.28-1.13,3.85-3.37,7.71s-4.58,8.36-7,13.49A144,144,0,0,0,1161,400.3a39.93,39.93,0,0,0-1.92,17.1,10.66,10.66,0,0,0,4.57,8.2,30.19,30.19,0,0,0,9.16,4.33,44.58,44.58,0,0,0,10.36,1.69c3.53.16,6.27.24,8.19.24a26.93,26.93,0,0,0,6-.72q3.12-.72.72-4.58,3.86-13,8.68-28.19t10.12-30.6a83.23,83.23,0,0,0,3.13-11.09q1.18-5.78,2.17-11.56a12.84,12.84,0,0,1-.24-6.51,14.92,14.92,0,0,1,3.13-5.54,171.88,171.88,0,0,0,7-17.35,108.08,108.08,0,0,1,7.47-17.1,39.57,39.57,0,0,1,11.08-13q6.74-5.06,18.31-5.06,7.71,0,9.64,13.49v5.3a153.31,153.31,0,0,1-3.37,19.29q-2.43,10.11-6.27,21.2-3.86,13-8.43,27.95t-7.47,28l1.45,17.35a18.8,18.8,0,0,0,1.68,7,31.21,31.21,0,0,0,4.58,7.72,28.86,28.86,0,0,0,6.51,6,12.59,12.59,0,0,0,7,2.41q9.64,0,15.91-3.86A46.3,46.3,0,0,0,1301.68,422q5.29-6.5,10.61-14.21a134.61,134.61,0,0,1,13-15.91c1.93,0,3.77-1.12,5.54-3.37a11.51,11.51,0,0,0,2.65-7.23q1.92,0,6.26-3.85a107.63,107.63,0,0,0,8.68-8.68c1.76-2,3.35-3.84,4.81-5.68v10l-3.85,13.5v9.15a3.1,3.1,0,0,1,3.37,2.89,41.74,41.74,0,0,1,.48,6.75v7.71a15.56,15.56,0,0,0,2.17,7.71,38.52,38.52,0,0,0,5.55,7.47,28.11,28.11,0,0,0,7.47,5.78,16.09,16.09,0,0,0,7.47,2.17q4.8,0,11.32-6.51a105.08,105.08,0,0,0,12.29-14.94q5.77-8.42,10.6-16.62a123.07,123.07,0,0,0,6.26-11.56c1.28-1,3.69-3,7.24-6,1.92-1.66,3.84-3.38,5.77-5.14v16.46q0,2.89,2.17,9.88t5.06,14.22q2.9,7.23,5.78,13.26t4.34,7q0,3.85,3.61,4.58a53,53,0,0,0,9.88.72q4.82-1,9.64-2.41l7.71-1.93a26.7,26.7,0,0,1,5.3-1c0-1.61,1-4.26,3.14-7.95s4.25-5.54,6.5-5.54,5-1.52,8.19-4.58a75.32,75.32,0,0,0,9.16-10.6,90,90,0,0,0,7.47-12.29q3.14-6.25,3.13-10.12a33.21,33.21,0,0,0-3.37-6.75,57.49,57.49,0,0,0-4.1-4.58,8.15,8.15,0,0,0-6-2.17,36.46,36.46,0,0,1-3.86,3.38,16.72,16.72,0,0,1-10.6,3.37,14.5,14.5,0,0,1-8.67-2.41,24.44,24.44,0,0,1-5.79-5.78,20.9,20.9,0,0,1-3.37-7.47,30.84,30.84,0,0,1-1-7v-9.64q0-9.15,1.44-11.32a30.29,30.29,0,0,1,3.86-4.58q1.92-1.92,4.34-11.56a74.24,74.24,0,0,0,2.41-17.84v-5.3a19,19,0,0,1,2.4-8.19c1-1.61,1.93-3.38,2.9-5.3.31-1.93.64-4,1-6.27.31-1.93.64-4.25,1-7a81.08,81.08,0,0,0,.49-9.39q0-3.85,5.3-6.75t8.19-2.89h9.64c1.93,0,3.21.24,3.85.72a3.61,3.61,0,0,0,1.43.41l-2.64,3q-7.47,8.45-13.24,15.67c-3.86,4.81-5.79,7.71-5.79,8.67,0,4.51,1.76,7.79,5.3,9.88s6.58,3.14,9.16,3.14l8.19-3.86h14.46c2.24,0,3.77-.64,4.57-1.93s2.49-.64,5.07,1.93a95.56,95.56,0,0,1,15.18,13.25,89.5,89.5,0,0,1,12.77,17.35,114.94,114.94,0,0,1,8.67,19.28,57.48,57.48,0,0,1,3.37,18.55v3.85a15,15,0,0,0,1.94,6.27,12.3,12.3,0,0,0,2.41,3.37v3.86c0,4.5.63,7.31,1.92,8.44a6.38,6.38,0,0,1,1.93,5.06,49.06,49.06,0,0,1-.48,6,70.5,70.5,0,0,1-1.45,7.47c-.65,2.89-1.29,5.95-1.92,9.15V428a55.39,55.39,0,0,1-2.41,15.42,124.45,124.45,0,0,1-6,16.14,94.55,94.55,0,0,1-8.68,15.18,90.66,90.66,0,0,1-9.88,12.05,73.69,73.69,0,0,1-7.35,13.41h41.48c.19-.45.39-.91.57-1.36Q1599,496,1603.11,490.17Z"/><path d="M1939,224.36c-4,11.2-10,30.8-10,30.8h-1.2s-5.6-20-10-31.2L1853,50.36h-68v280h54V171.16c0-12-.8-32.8-.8-32.8h1.6s5.6,20,9.6,31.2l58.4,160.8h41.19l58.4-160.8c4-11.6,10.4-31.2,10.4-31.2h1.6s-1.6,20.8-1.6,33.2v158.8h54v-280h-67.6Z"/><path d="M2191.74,50.36l-99.59,280h58l20.79-62.4h98l20.8,62.4h58.4l-99.6-280Zm-4.8,169.6,23.6-71.2c3.6-12,8.8-32.8,8.8-32.8h1.6s4.4,21.2,8.4,33.2l23.6,70.8Z"/><path d="M2463.74,94.76h20.8c26.8,0,49.6,25.6,52.4,58h54c-5.6-58.8-46.4-105.6-106.8-105.6h-20.4c-58.8,0-120.4,49.6-120.4,143.2,0,93.2,59.2,143.2,120.4,143.2h20c51.6,0,102.8-44.8,107.2-105.6h-53.6c-4,32-26.8,58-53.6,58h-20c-31.6,0-64-35.2-64-95.6C2399.74,129.56,2433.34,94.76,2463.74,94.76Z"/><polygon points="2787.34 163.16 2676.14 163.16 2676.14 50.36 2620.54 50.36 2620.54 330.36 2676.14 330.36 2676.14 210.76 2787.34 210.76 2787.34 330.36 2842.94 330.36 2842.94 50.36 2787.34 50.36 2787.34 163.16"/><rect x="2886.94" y="50.36" width="55.6" height="280"/><path d="M3154.53,211.56c0,18,1.2,30.8,1.2,30.8l-1.6.4s-5.6-11.6-14-27.2l-94-165.2h-59.6v280h55.6V169.56c0-18-.8-30.8-.8-30.8l1.6-.4s5.2,11.6,14,27.2l94,164.8h59.6v-280h-56Z"/><polygon points="3310.13 210.36 3438.13 210.36 3438.13 162.76 3310.13 162.76 3310.13 97.96 3444.93 97.96 3444.93 50.36 3254.53 50.36 3254.53 330.36 3445.33 330.36 3445.33 282.76 3310.13 282.76 3310.13 210.36"/><polygon points="55.64 330.36 111.24 330.36 111.24 211.16 235.24 211.16 235.24 163.56 111.24 163.56 111.24 97.96 242.04 97.96 242.04 50.36 55.64 50.36 55.64 330.36"/><rect x="270.84" y="50.36" width="55.6" height="280"/><path d="M590.4,51.77v82.59H626c20.16,0,38.28-14.28,38.28-42.36,0-27.6-18.24-41.64-38.28-41.64H522.44l-96.4,114v-114h-55.6v280H426v-88.8l29.6-33.2,76.8,122h68.8l-106.8-168.8ZM615,71.12h8c8.88,0,16.68,6.36,16.68,20.88,0,14.88-7.8,21.6-16.68,21.6h-8Z"/><polygon points="734.04 113.6 697.92 113.6 697.92 102.2 731.88 102.2 731.88 81.44 697.92 81.44 697.92 71.12 733.92 71.12 733.92 50.36 673.32 50.36 673.32 134.36 734.04 134.36 734.04 113.6"/><path d="M818.4,92c0-27.6-18.24-41.64-38.28-41.64H744.48v84h35.64C800.28,134.36,818.4,120.08,818.4,92Zm-49.32,21.6V71.12h8c8.88,0,16.68,6.36,16.68,20.88,0,14.88-7.8,21.6-16.68,21.6Z"/><polygon points="888.12 113.6 852 113.6 852 102.2 885.96 102.2 885.96 81.44 852 81.44 852 71.12 888 71.12 888 50.36 827.4 50.36 827.4 134.36 888.12 134.36 888.12 113.6"/><path d="M967.19,50.36H941.52l-6.6,12c-2.64,4.8-4.08,8.16-4.08,8.16h-.72s-1.44-3.36-4-8.16l-6.48-12H893.16L917,91.76,892,134.36h25.68l7.8-14.16c2.64-4.68,4.08-8,4.08-8h.72s1.56,3.36,4.08,8l7.56,14.16h26.51L943.31,91Z"/></svg>