<svg width="700" height="100" xmlns="http://www.w3.org/2000/svg"><defs><clipPath id="a"><path style="fill:none;stroke-width:0" d="M0 0h486.13v123.9H0z"/></clipPath></defs><g clip-path="url(#a)" transform="translate(106.935 -28)"><path d="M477.52 65.39c5.77 0 8.6-3.36 8.6-10.33V34.41c0-6.97-2.84-10.32-8.6-10.32h-3.44c-5.76 0-8.6 3.36-8.6 10.32v69.7c0 2.67 1.64 4.3 4.3 4.3h12.05c2.67 0 4.3-1.63 4.3-4.3V90.34c0-2.67-1.63-4.3-4.3-4.3h-6.02c-1.03 0-1.72-.69-1.72-1.72s.69-1.72 1.72-1.72h3.44c4.22 0 6.88-2.67 6.88-6.88s-2.67-6.88-6.88-6.88h-3.44c-1.03 0-1.72-.69-1.72-1.72s.69-1.72 1.72-1.72h1.72zM458.6 43.02c-2.67 0-4.3 1.64-4.3 4.3v45.6c0 1.03-.69 1.72-1.72 1.72s-1.72-.69-1.72-1.72V42.58c0-15.06-6.45-22.37-19.79-22.37s-19.79 7.31-19.79 22.37v64.1c0 11.62 4.82 17.21 14.63 17.21s14.63-5.59 14.63-17.21V67.1c0-1.03.69-1.72 1.72-1.72s1.72.69 1.72 1.72v32.18c0 5.85 3.7 9.55 9.46 9.55 5.76 0 9.46-3.7 9.46-9.55V47.31c0-2.67-1.63-4.3-4.3-4.3M395.79 0c-8.86 0-12.91 4.82-12.91 15.49v92.93c0 10.67 4.04 15.49 12.91 15.49 8.87 0 12.91-4.82 12.91-15.49V15.49C408.7 4.82 404.66 0 395.79 0m-24.96 36.14c-6.37 0-9.46 3.96-9.46 12.05v10.32c0 1.03-.69 1.72-1.72 1.72s-1.72-.69-1.72-1.72V48.19c0-8.09-3.1-12.05-9.46-12.05-6.36 0-9.46 3.96-9.46 12.05v55.07c0 8.09 3.1 12.05 9.46 12.05 6.36 0 9.46-3.96 9.46-12.05V84.33c0-1.03.69-1.72 1.72-1.72s1.72.69 1.72 1.72v18.93c0 8.09 3.1 12.05 9.46 12.05 6.36 0 9.46-3.96 9.46-12.05V48.19c0-8.09-3.1-12.05-9.46-12.05m-34.41 13.33c0-6.28-4.04-10.33-10.33-10.33s-10.32 4.04-10.32 10.33v49.04c0 6.28 4.04 10.33 10.32 10.33s10.33-4.04 10.33-10.33v-8.17c0-2.67-1.64-4.3-4.3-4.3s-4.3 1.63-4.3 4.3v2.58c0 1.03-.69 1.72-1.72 1.72s-1.72-.69-1.72-1.72V67.11c0-1.03.69-1.72 1.72-1.72s1.72.69 1.72 1.72v2.58c0 2.67 1.63 4.3 4.3 4.3s4.3-1.63 4.3-4.3zm-45.6 26.25c0 1.03-.69 1.72-1.72 1.72s-1.72-.69-1.72-1.72v-8.6c0-1.03.69-1.72 1.72-1.72s1.72.69 1.72 1.72zm5.16-43.45c-11.62 0-17.21 6.45-17.21 19.79v52.06c0 2.67 1.64 4.3 4.3 4.3s4.3-1.63 4.3-4.3V92.93c0-1.03.69-1.72 1.72-1.72s1.72.69 1.72 1.72v8.6c0 9.29 3.7 13.77 11.19 13.77 7.49 0 11.18-4.47 11.18-13.77V52.06c0-13.34-5.59-19.79-17.21-19.79m-30.1 0c-6.97 0-10.33 3.96-10.33 12.05v48.61c0 1.03-.69 1.72-1.72 1.72s-1.72-.69-1.72-1.72V44.32c0-8.09-3.36-12.05-10.32-12.05-6.96 0-10.32 3.96-10.32 12.05v58.94c0 4.65 1.72 6.88 5.16 6.88 3.44 0 5.16-2.24 5.16-6.88V67.12c0-1.03.69-1.72 1.72-1.72s1.72.69 1.72 1.72v33.13c0 5.25 3.35 8.6 8.6 8.6s8.6-3.35 8.6-8.6V67.12c0-1.03.69-1.72 1.72-1.72s1.72.69 1.72 1.72v36.14c0 4.65 1.72 6.88 5.16 6.88 3.44 0 5.16-2.24 5.16-6.88V44.32c0-8.09-3.36-12.05-10.33-12.05M206.5 74c5.08 0 7.74-3.1 7.74-9.03v-9.04c0-5.08-2.24-7.74-6.45-7.74s-6.45 2.67-6.45 7.74v11.19c0 1.03-.69 1.72-1.72 1.72s-1.72-.69-1.72-1.72V56.8c0-3.18-1.98-5.16-5.16-5.16s-5.16 1.98-5.16 5.16v12.04c0 3.18 1.98 5.16 5.16 5.16 1.03 0 1.72.69 1.72 1.72v8.6c0 1.03-.69 1.72-1.72 1.72-3.18 0-5.16 1.98-5.16 5.16v12.05c0 3.18 1.98 5.16 5.16 5.16s5.16-1.98 5.16-5.16V92.93c0-1.03.69-1.72 1.72-1.72s1.72.69 1.72 1.72v11.19c0 5.08 2.24 7.74 6.45 7.74s6.45-2.67 6.45-7.74v-9.03c0-5.94-2.67-9.03-7.74-9.03-1.03 0-1.72-.69-1.72-1.72v-8.6c0-1.03.69-1.72 1.72-1.72m-30.12 1.7c0 1.03-.69 1.72-1.72 1.72s-1.72-.69-1.72-1.72v-8.6c0-1.03.69-1.72 1.72-1.72s1.72.69 1.72 1.72zm3.01 6.88c3.7 0 5.59-2.15 5.59-6.45V55.07c0-7.57-3.61-11.62-10.32-11.62-6.71 0-10.32 4.04-10.32 11.62v43.45c0 6.28 4.04 10.33 10.32 10.33s10.32-4.04 10.32-10.33v-8.17c0-2.67-1.63-4.3-4.3-4.3s-4.3 1.63-4.3 4.3v2.58c0 1.03-.69 1.72-1.72 1.72s-1.72-.69-1.72-1.72v-8.6c0-1.03.69-1.72 1.72-1.72h4.73zm-39.14 12.05c-1.03 0-1.72-.69-1.72-1.72V67.12c0-1.03.69-1.72 1.72-1.72s1.72.69 1.72 1.72v25.81c0 1.03-.69 1.72-1.72 1.72m11.61-81.74c-6.62 0-9.89 3.79-9.89 11.62v28.65c-1.2-1.29-3.01-1.98-5.16-1.98-4.22 0-6.88 2.67-6.88 6.88v43.88c0 4.22 2.67 6.88 6.88 6.88 2.24 0 4.04-.77 5.25-2.15.6 6.37 3.87 9.47 9.81 9.47 6.71 0 9.9-3.79 9.9-11.62V24.52c0-7.83-3.18-11.62-9.9-11.62m-33.13 62.82c0 1.03-.69 1.72-1.72 1.72s-1.72-.69-1.72-1.72v-8.6c0-1.03.69-1.72 1.72-1.72s1.72.69 1.72 1.72zm3.01 6.88c3.7 0 5.59-2.15 5.59-6.45V55.07c0-7.57-3.61-11.62-10.32-11.62-6.71 0-10.32 4.04-10.32 11.62v43.45c0 6.28 4.04 10.33 10.32 10.33s10.32-4.04 10.32-10.33v-8.17c0-2.67-1.63-4.3-4.3-4.3s-4.3 1.63-4.3 4.3v2.58c0 1.03-.69 1.72-1.72 1.72s-1.72-.69-1.72-1.72v-8.6c0-1.03.69-1.72 1.72-1.72h4.73zM82.6 94.65c-1.03 0-1.72-.69-1.72-1.72V67.12c0-1.03.69-1.72 1.72-1.72s1.72.69 1.72 1.72v25.81c0 1.03-.69 1.72-1.72 1.72m11.61-81.74c-6.62 0-9.89 3.79-9.89 11.62v28.65c-1.21-1.29-3.01-1.98-5.16-1.98-4.22 0-6.88 2.67-6.88 6.88v43.88c0 4.22 2.67 6.88 6.88 6.88 2.24 0 4.04-.77 5.25-2.15.6 6.37 3.87 9.47 9.81 9.47 6.71 0 9.9-3.79 9.9-11.62V24.52c0-7.83-3.18-11.62-9.9-11.62M51.62 74c4.22 0 6.88-2.67 6.88-6.88V49.05c0-3.7-2.32-6.02-6.02-6.02-3.7 0-6.02 2.32-6.02 6.02v12.91c0 2.07 1.38 3.44 3.44 3.44 1.03 0 1.72.69 1.72 1.72s-.69 1.72-1.72 1.72h-5.16c-1.03 0-1.72-.69-1.72-1.72V47.33c0-2.67-1.63-4.3-4.3-4.3s-4.3 1.64-4.3 4.3v56.79c0 2.67 1.64 4.3 4.3 4.3s4.3-1.63 4.3-4.3V84.33c0-1.03.69-1.72 1.72-1.72s1.72.69 1.72 1.72v19.79c0 2.67 1.63 4.3 4.3 4.3h3.44c2.67 0 4.3-1.63 4.3-4.3V90.35c0-2.67-1.64-4.3-4.3-4.3-1.03 0-1.72-.69-1.72-1.72v-2.58c0-2.67-1.64-4.3-4.3-4.3h-3.44c-1.03 0-1.72-.69-1.72-1.72s.69-1.72 1.72-1.72h6.88zM27.53 43.02c-2.67 0-4.3 1.64-4.3 4.3v56.79c0 2.67 1.64 4.3 4.3 4.3s4.3-1.63 4.3-4.3V47.32c0-2.67-1.64-4.3-4.3-4.3M16.35 74c2.67 0 4.3-1.63 4.3-4.3V47.33c0-2.67-1.64-4.3-4.3-4.3H4.3C1.64 43.02 0 44.66 0 47.32v56.79c0 2.67 1.63 4.3 4.3 4.3s4.3-1.63 4.3-4.3V92.92c0-1.03.69-1.72 1.72-1.72h3.44c4.22 0 6.88-2.67 6.88-6.88s-2.67-6.88-6.88-6.88h-3.44c-1.03 0-1.72-.69-1.72-1.72S9.29 74 10.32 74h6.02z" style="fill:#ffc2fc;stroke-width:0"/></g></svg>