<?xml version="1.0" encoding="utf-8"?>
<!-- Generator: Adobe Illustrator 22.0.1, SVG Export Plug-In . SVG Version: 6.00 Build 0)  -->
<svg version="1.1" xmlns="http://www.w3.org/2000/svg" xmlns:xlink="http://www.w3.org/1999/xlink" x="0px" y="0px"
	 viewBox="0 0 100 100" style="enable-background:new 0 0 100 100;" xml:space="preserve">
<style type="text/css">
	.st0{fill:#0000FF;}
	.st1{fill:#00FF00;}
	.st2{fill:#231F20;}
	.st3{fill:#FFFFFF;}
	.st4{fill:none;stroke:#FFFFFF;}
	.st5{fill:none;stroke:#231F20;}
</style>
<g id="Layer_1">
	<g>
		<path class="st0" d="M34.6,78.2V20.6h25.6c3.5,0,6.4,3,6.4,6.4v19.2c0,1.7-1.4,3.2-3.2,3.2c1.7,0,3.2,1.5,3.2,3.2v19.2
			c0,3.6-2.9,6.4-6.4,6.4H34.6z M57,46.2c1.8,0,3.2-1.5,3.2-3.2s-1.5-3.2-3.2-3.2H41v6.4H57z M57,59c1.8,0,3.2-1.5,3.2-3.2
			s-1.5-3.2-3.2-3.2H41V59H57z"/>
	</g>
</g>
<g id="Layer_2">
</g>
</svg>
