<?xml version="1.0" encoding="utf-8"?>
<!-- Generator: Adobe Illustrator 22.0.1, SVG Export Plug-In . SVG Version: 6.00 Build 0)  -->
<svg version="1.1" xmlns="http://www.w3.org/2000/svg" xmlns:xlink="http://www.w3.org/1999/xlink" x="0px" y="0px"
	 viewBox="0 0 100 100" style="enable-background:new 0 0 100 100;" xml:space="preserve">
<style type="text/css">
	.st0{fill:#0000FF;}
	.st1{fill:#00FF00;}
	.st2{fill:#231F20;}
	.st3{fill:#FFFFFF;}
	.st4{fill:none;stroke:#FFFFFF;}
	.st5{fill:none;stroke:#231F20;}
</style>
<g id="Layer_1">
	<rect x="-3.9" y="-6.1" class="st2" width="110" height="112"/>
	<g>
		<path class="st3" d="M34.6,71.8v-9.6l-6.4-6.4V20.6h6.4v32l6.3,6.4l6.5-6.4v-32h6.4v32l6.3,6.4l6.5-6.4v-32H73v35.2l-6.4,6.4v9.6
			c0,3.6-2.9,6.4-6.4,6.4c-3.6,0-6.4-2.8-6.4-6.4v-9.6L50.6,59l-3.2,3.2v9.6c0,3.6-2.9,6.4-6.4,6.4C37.4,78.2,34.6,75.4,34.6,71.8z"
			/>
	</g>
</g>
<g id="Layer_2">
</g>
</svg>
