<?xml version="1.0" encoding="utf-8"?>
<!-- Generator: Adobe Illustrator 22.0.1, SVG Export Plug-In . SVG Version: 6.00 Build 0)  -->
<svg version="1.1" xmlns="http://www.w3.org/2000/svg" xmlns:xlink="http://www.w3.org/1999/xlink" x="0px" y="0px"
	 viewBox="0 0 700 100" style="enable-background:new 0 0 700 100;" xml:space="preserve">
<style type="text/css">
	.st0{fill:#00FF00;}
	.st1{fill:#231F20;}
	.st2{fill:#FFFFFF;}
	.st3{fill:none;stroke:#FFFFFF;}
	.st4{fill:none;stroke:#231F20;stroke-width:13;}
	.st5{fill:#0000FF;}
</style>
<g id="Layer_1">
	<rect x="-29" y="-6.5" class="st5" width="745.5" height="112"/>
	<g>
		<path class="st2" d="M17.6,76.8V21.5h30.7V40H23.8v6.1h18.4v6.1H23.8v24.6H17.6z"/>
		<path class="st2" d="M53,76.8V58.4h6.1V40H53V21.5h18.4V40h-6.1v18.4h6.1v18.4H53z"/>
		<path class="st2" d="M76.2,76.8V21.5h6.1v12.3l12.3-12.3h12.3V40H88.5c-3.4,0-6.1,2.8-6.1,6.1v6.1c0,3.5,2.7,6.1,6.1,6.1h18.4
			v18.4H94.6L82.3,64.5v12.3H76.2z"/>
		<path class="st2" d="M134.7,76.8c-3.5,0-6.1-2.7-6.1-6.1V21.5h6.1v30.7c0,3.5,2.7,6.1,6.1,6.1h6.1c3.4,0,6.1-2.8,6.1-6.1V21.5h6.1
			v49.1c0,3.5-2.8,6.1-6.1,6.1H134.7z"/>
		<path class="st2" d="M164,76.8V21.5h30.7V40h-24.6v6.1h18.4v6.1h-18.4v24.6H164z"/>
		<path class="st2" d="M205.6,76.8c-3.5,0-6.1-2.7-6.1-6.1v-43c0-3.4,2.8-6.1,6.1-6.1H224c3.4,0,6.1,2.9,6.1,6.1v43
			c0,3.5-2.8,6.1-6.1,6.1H205.6z M217.9,58.4c3.4,0,6.1-2.8,6.1-6.1v-6.1c0-3.3-2.9-6.1-6.1-6.1h-6.1c-3.4,0-6.1,2.8-6.1,6.1v6.1
			c0,3.5,2.7,6.1,6.1,6.1H217.9z"/>
		<path class="st2" d="M251.9,76.8V21.5h24.6c3.4,0,6.1,2.9,6.1,6.1v43c0,3.5-2.8,6.1-6.1,6.1H251.9z M270.3,58.4
			c3.4,0,6.1-2.8,6.1-6.1v-6.1c0-3.3-2.9-6.1-6.1-6.1H258v18.4H270.3z"/>
		<path class="st2" d="M287.3,76.8V21.5H318V40h-24.6v6.1h18.4v6.1h-18.4v6.1H318v18.4H287.3z"/>
		<path class="st2" d="M322.7,76.8V21.5h24.6c3.4,0,6.1,2.9,6.1,6.1v43c0,3.5-2.8,6.1-6.1,6.1H322.7z M341.1,58.4
			c3.4,0,6.1-2.8,6.1-6.1v-6.1c0-3.3-2.9-6.1-6.1-6.1h-12.3v18.4H341.1z"/>
		<path class="st2" d="M358.1,76.8V21.5h30.7V40h-24.6v6.1h18.4v6.1h-18.4v6.1h24.6v18.4H358.1z"/>
		<path class="st2" d="M393.5,76.8V58.4h6.1c3.4,0,6.1-2.8,6.1-6.1v-6.1c0-3.3-2.9-6.1-6.1-6.1h-6.1V21.5h6.1l9.2,9.2l9.2-9.2h6.1
			V40h-6.1c-3.4,0-6.1,2.8-6.1,6.1v6.1c0,3.5,2.7,6.1,6.1,6.1h6.1v18.4h-6.1l-9.2-9.2l-9.2,9.2H393.5z"/>
		<path class="st2" d="M446,76.8V21.5h12.3c3.4,0,6.1,2.9,6.1,6.1v27.6c0,1.8,1.2,3.1,3.1,3.1c1.7,0,3.1-1.4,3.1-3.1V27.7
			c0-3.4,2.8-6.1,6.1-6.1H489v55.3h-6.1V43c0-1.6-1.4-3.1-3.1-3.1s-3.1,1.3-3.1,3.1v27.6c0,3.5-2.8,6.1-6.1,6.1h-6.1
			c-3.5,0-6.1-2.7-6.1-6.1V43c0-1.6-1.4-3.1-3.1-3.1s-3.1,1.3-3.1,3.1v33.8H446z"/>
		<path class="st2" d="M493.7,76.8V27.7c0-3.4,2.8-6.1,6.1-6.1h18.4c3.4,0,6.1,2.9,6.1,6.1v49.1h-6.1V52.2h-18.4v24.6H493.7z
			 M518.2,46.1c0-3.3-2.9-6.1-6.1-6.1H506c-3.4,0-6.1,2.8-6.1,6.1H518.2z"/>
		<path class="st2" d="M535.2,76.8c-3.5,0-6.1-2.7-6.1-6.1v-43c0-3.4,2.8-6.1,6.1-6.1h18.4V40h-12.3c-3.4,0-6.1,2.8-6.1,6.1v6.1
			c0,3.5,2.7,6.1,6.1,6.1h12.3v18.4H535.2z"/>
		<path class="st2" d="M558.4,76.8V21.5h6.1V40h18.4V21.5h6.1v55.3h-6.1V58.4h-18.4v18.4H558.4z"/>
		<path class="st2" d="M593.8,76.8V58.4h6.1V40h-6.1V21.5h18.4V40h-6.1v18.4h6.1v18.4H593.8z"/>
		<path class="st2" d="M616.9,76.8V21.5h12.3c3.4,0,6.1,2.9,6.1,6.1v27.6c0,1.8,1.2,3.1,3.1,3.1c1.7,0,3.1-1.4,3.1-3.1V21.5h6.1
			v55.3h-12.3c-3.5,0-6.1-2.7-6.1-6.1V43c0-1.6-1.4-3.1-3.1-3.1s-3.1,1.3-3.1,3.1v33.8H616.9z"/>
		<path class="st2" d="M652.4,76.8V21.5h30.7V40h-24.6v6.1h18.4v6.1h-18.4v6.1h24.6v18.4H652.4z"/>
	</g>
</g>
<g id="Layer_2">
</g>
</svg>
