<svg version="1" xmlns="http://www.w3.org/2000/svg" width="933.333" height="933.333" viewBox="0 0 700.000000 700.000000"><path d="M226 166.2V240h7.3c3.9 0 17.3.1 29.7.3 21.3.3 22.8.5 29 2.9 17 6.6 28.8 20.3 32.2 37.2 1.4 6.8 1.7 48 .4 53.6-3.9 16.9-15.9 30.6-32.3 36.8-6.6 2.5-7.6 2.6-33.8 2.8-14.8.2-28.2.3-29.8.4H226l.2 116.7.3 116.8 24.5.1 24.5.1 37.3-37.1 37.3-37.1 37.1 37.4 37.1 37.4 24.6.1h24.6V374.5l-28-.1c-30.6-.1-35.9-.8-45.8-6.2-6.5-3.5-14.7-11.6-18.5-18.4-5.6-9.9-6.5-14.9-6.7-40-.1-25.5.7-31.7 5.7-41.8 5.6-11.5 19.8-22.9 31.8-25.6 1.9-.4 3.8-.9 4.3-1 .4-.1 13.5-.2 29.2-.3l28.5-.1-.2-74.3-.3-74.2-24.5-.1-24.5-.1-37.3 37.1-37.2 37.1-37-37-37-37h-25l-25-.1v73.8z"/></svg>